<svg width="2697" height="500" viewBox="0 0 2697 500" fill="none" xmlns="http://www.w3.org/2000/svg">
<path d="M249.921 121.526L500.081 266.968V145.604L249.761 0L0.0810547 145.766V267.292L249.921 121.526Z" fill="url(#paint0_linear_1_3)"/>
<path d="M460.068 413.219L500.081 389.463V314.964L249.761 169.198L0.0810547 314.964V389.787L40.0939 413.219L249.761 290.724L460.068 413.219Z" fill="url(#paint1_linear_1_3)"/>
<path d="M249.921 462.993L313.461 500L417.815 439.399L249.761 341.467L82.3474 439.399L186.701 500L249.921 462.993Z" fill="url(#paint2_linear_1_3)"/>
<path d="M827.389 185.453V363.927H765.794V185.453H669V135.812H924.344V185.453H827.389ZM1229.94 352.638C1211.23 358.836 1192.56 363.291 1173.91 366.003C1155.26 368.715 1136.19 370.071 1116.71 370.071C1091.81 370.071 1069.64 367.386 1050.22 362.018C1030.79 356.65 1014.44 348.875 1001.16 338.692C987.877 328.51 977.749 316.058 970.776 301.337C963.804 286.616 960.317 269.959 960.317 251.364C960.317 234.098 963.831 218.077 970.859 203.301C977.887 188.524 987.848 175.686 1000.74 164.783C1013.64 153.879 1029.22 145.358 1047.48 139.215C1065.74 133.073 1086.11 130.001 1108.57 130.001C1129.27 130.001 1148.23 132.795 1165.44 138.385C1182.65 143.974 1197.43 152.248 1209.77 163.205C1222.11 174.162 1231.68 187.665 1238.49 203.715C1245.3 219.764 1248.7 238.248 1248.7 259.166V274.441H1023.91C1025.9 281.635 1029.19 288.221 1033.78 294.197C1038.38 300.174 1044.6 305.266 1052.46 309.472C1060.32 313.678 1069.98 316.943 1081.43 319.267C1092.89 321.591 1106.59 322.753 1122.52 322.753C1133.81 322.753 1144.88 322.061 1155.73 320.678C1166.58 319.295 1176.7 317.468 1186.11 315.199C1195.52 312.93 1204.01 310.412 1211.6 307.645C1219.18 304.878 1225.29 302.111 1229.94 299.344L1229.94 352.638ZM1187.44 229.281C1186.88 223.636 1185.2 217.797 1182.37 211.766C1179.55 205.735 1175.1 200.283 1169.01 195.413C1162.92 190.543 1154.95 186.531 1145.1 183.376C1135.25 180.222 1122.97 178.644 1108.24 178.644C1094.41 178.644 1082.46 180.36 1072.38 183.791C1062.31 187.222 1053.87 191.484 1047.06 196.575C1040.26 201.666 1034.97 207.145 1031.21 213.011C1027.45 218.877 1025.01 224.301 1023.9 229.282L1187.44 229.281ZM1508.63 363.927V341.514C1500.78 345.831 1492.34 349.649 1483.32 352.97C1474.3 356.291 1464.92 359.113 1455.18 361.437C1445.43 363.762 1435.39 365.505 1425.04 366.667C1414.69 367.829 1404.26 368.41 1393.75 368.41C1381.46 368.41 1369.59 367.248 1358.13 364.924C1346.68 362.599 1336.52 358.836 1327.67 353.634C1318.82 348.433 1311.7 341.625 1306.33 333.214C1300.97 324.803 1298.28 314.508 1298.28 302.334C1298.28 286.949 1302.49 274.138 1310.9 263.899C1319.31 253.66 1332.15 245.276 1349.42 238.746C1366.69 232.216 1388.52 227.18 1414.92 223.639C1441.31 220.097 1472.55 217.33 1508.63 215.337V210.523C1508.63 206.759 1507.64 203.024 1505.64 199.316C1503.65 195.608 1500.03 192.343 1494.77 189.521C1489.51 186.699 1482.32 184.402 1473.19 182.631C1464.05 180.86 1452.4 179.974 1438.24 179.974C1427.06 179.974 1416.02 180.555 1405.12 181.718C1394.21 182.88 1383.7 184.457 1373.57 186.449C1363.44 188.442 1353.84 190.766 1344.77 193.422C1335.69 196.079 1327.45 198.846 1320.03 201.723V146.936C1327.78 144.943 1336.47 143.006 1346.09 141.125C1355.72 139.244 1365.74 137.611 1376.15 136.227C1386.55 134.844 1397.06 133.737 1407.69 132.907C1418.31 132.077 1428.5 131.662 1438.24 131.662C1457.39 131.662 1475.04 133.239 1491.2 136.393C1507.36 139.548 1521.28 144.446 1532.95 151.086C1544.63 157.727 1553.76 166.139 1560.35 176.322C1566.94 186.506 1570.23 198.624 1570.23 212.681V363.929L1508.63 363.927ZM1508.63 259.831C1484.95 260.717 1464.83 261.989 1448.28 263.649C1431.74 265.31 1417.99 267.247 1407.03 269.46C1396.07 271.674 1387.47 274.053 1381.21 276.599C1374.96 279.145 1370.28 281.746 1367.18 284.402C1364.08 287.059 1362.17 289.715 1361.45 292.371C1360.74 295.028 1360.38 297.463 1360.38 299.676C1360.38 302.333 1361.1 304.906 1362.53 307.396C1363.97 309.887 1366.49 312.073 1370.09 313.954C1373.69 315.836 1378.47 317.33 1384.45 318.437C1390.43 319.544 1397.95 320.097 1407.03 320.097C1417.1 320.097 1426.95 319.322 1436.58 317.773C1446.21 316.223 1455.34 314.093 1463.98 311.381C1472.61 308.669 1480.72 305.46 1488.3 301.752C1495.88 298.044 1502.66 294.087 1508.64 289.881L1508.63 259.831ZM1712.78 135.81V160.881C1718.21 157.449 1724.1 153.908 1730.47 150.255C1736.83 146.603 1743.75 143.282 1751.22 140.293C1758.69 137.305 1766.71 134.842 1775.29 132.905C1783.87 130.968 1793.14 130 1803.1 130C1812.84 130 1821.36 131.024 1828.67 133.071C1835.97 135.119 1842.31 137.775 1847.68 141.041C1853.05 144.306 1857.61 147.958 1861.37 151.998C1865.14 156.039 1868.4 160.051 1871.17 164.035C1879.03 158.944 1886.78 154.295 1894.41 150.089C1902.05 145.883 1909.74 142.286 1917.49 139.298C1925.24 136.31 1933.15 134.013 1941.23 132.408C1949.31 130.803 1957.72 130.001 1966.47 130.001C1980.41 130.001 1992.89 131.938 2003.91 135.811C2014.92 139.685 2024.24 144.998 2031.88 151.75C2039.52 158.502 2045.36 166.443 2049.4 175.574C2053.44 184.705 2055.46 194.472 2055.46 204.877V363.928H1993.86V213.675C1993.86 207.588 1992.92 202.331 1991.04 197.903C1989.16 193.475 1986.64 189.878 1983.48 187.111C1980.33 184.343 1976.62 182.296 1972.36 180.968C1968.1 179.639 1963.59 178.975 1958.83 178.975C1936.69 178.975 1911.46 188.937 1883.12 208.859C1883.46 210.741 1883.7 212.954 1883.87 215.5C1884.04 218.046 1884.12 220.591 1884.12 223.137V363.929H1822.52V212.35C1822.52 206.262 1821.58 201.088 1819.7 196.827C1817.82 192.565 1815.25 189.107 1811.98 186.45C1808.72 183.794 1804.95 181.884 1800.69 180.722C1796.43 179.56 1791.92 178.979 1787.16 178.979C1781.41 178.979 1775.35 179.809 1768.98 181.469C1762.62 183.13 1756.2 185.454 1749.72 188.442C1743.25 191.431 1736.88 194.973 1730.63 199.068C1724.38 203.163 1718.43 207.59 1712.78 212.35V363.929H1651.19V135.812L1712.78 135.81ZM2198.01 266.309C2198.01 275.827 2198.9 283.603 2200.67 289.634C2202.44 295.666 2205.32 300.454 2209.3 303.995C2213.29 307.536 2218.46 309.972 2224.82 311.3C2231.19 312.628 2239.02 313.292 2248.32 313.292H2365.2V363.929H2235.7C2217.77 363.929 2202.53 362.463 2189.96 359.53C2177.4 356.597 2167.14 352.059 2159.17 345.915C2151.2 339.772 2145.41 331.997 2141.82 322.59C2138.22 313.182 2136.42 302.002 2136.42 289.053V135.816H2198.02L2198.01 266.309ZM2696.03 276.263C2696.03 291.094 2692.37 304.321 2685.07 315.942C2677.76 327.564 2667.39 337.388 2653.94 345.412C2640.49 353.435 2624.22 359.551 2605.13 363.757C2586.04 367.963 2564.65 370.066 2540.96 370.066C2530.56 370.066 2519.63 369.651 2508.17 368.821C2496.72 367.991 2485.54 366.829 2474.63 365.334C2463.73 363.84 2453.52 362.125 2444 360.188C2434.48 358.251 2426.46 356.12 2419.93 353.796V299.672C2427.01 302.66 2434.9 305.483 2443.59 308.139C2452.28 310.796 2461.71 313.148 2471.9 315.195C2482.08 317.243 2493.01 318.848 2504.68 320.01C2516.36 321.172 2528.73 321.753 2541.79 321.753C2554.08 321.753 2564.9 321.034 2574.25 319.595C2583.6 318.156 2591.71 316.219 2598.57 313.784C2605.43 311.349 2611.13 308.554 2615.67 305.4C2620.21 302.245 2623.86 298.98 2626.63 295.605C2629.4 292.229 2631.36 288.881 2632.52 285.561C2633.68 282.241 2634.27 279.141 2634.27 276.263V256.174C2622.98 264.475 2609.53 271.31 2593.92 276.678C2578.32 282.046 2560.55 284.73 2540.63 284.73C2517.5 284.73 2498.21 282.489 2482.77 278.006C2467.33 273.523 2454.96 267.048 2445.66 258.581C2436.37 250.113 2429.75 239.791 2425.82 227.617C2421.89 215.443 2419.93 201.717 2419.93 186.443V135.806H2481.86V180.301C2481.86 189.266 2483.05 197.235 2485.43 204.208C2487.81 211.181 2491.57 217.02 2496.72 221.723C2501.86 226.426 2508.53 229.996 2516.72 232.432C2524.91 234.867 2534.82 236.084 2546.44 236.084C2556.29 236.084 2565.62 234.867 2574.41 232.432C2583.21 229.997 2591.32 226.787 2598.74 222.803C2606.15 218.818 2612.85 214.28 2618.83 209.188C2624.8 204.097 2629.95 198.895 2634.27 193.582V135.806H2696.03L2696.03 276.263Z" fill="#3D8CBF"/>
<defs>
<linearGradient id="paint0_linear_1_3" x1="0.0810547" y1="0" x2="500.081" y2="0" gradientUnits="userSpaceOnUse">
<stop stop-color="#2D388A"/>
<stop offset="1" stop-color="#00AEEF"/>
</linearGradient>
<linearGradient id="paint1_linear_1_3" x1="0.0810547" y1="169.198" x2="500.081" y2="169.198" gradientUnits="userSpaceOnUse">
<stop stop-color="#2D388A"/>
<stop offset="1" stop-color="#00AEEF"/>
</linearGradient>
<linearGradient id="paint2_linear_1_3" x1="82.3474" y1="341.467" x2="417.815" y2="341.467" gradientUnits="userSpaceOnUse">
<stop stop-color="#2D388A"/>
<stop offset="1" stop-color="#00AEEF"/>
</linearGradient>
</defs>
</svg>
