<svg width="3001" height="751" viewBox="0 0 3001 751" fill="none" xmlns="http://www.w3.org/2000/svg">
<path d="M378.631 182.483L757.594 400.695V218.609L378.389 0.154175L0.154297 218.851V401.18L378.631 182.483Z" fill="#7E54F8"/>
<path d="M696.979 620.12L757.594 584.478V472.705L378.389 254.008L0.154297 472.705V584.963L60.7688 620.12L378.389 436.336L696.979 620.12Z" fill="#7E54F8"/>
<path d="M378.632 694.797L474.887 750.32L632.97 659.398L378.389 512.468L124.778 659.398L282.861 750.32L378.632 694.797Z" fill="#7E54F8"/>
<path d="M1064.73 485.219C1086.19 493.937 1102.96 487.901 1113.02 483.207V536.857C1104.3 542.222 1091.56 546.916 1073.45 546.916C1033.89 546.916 999.013 534.175 977.553 499.302C957.434 465.771 957.434 447.664 957.434 395.355V265.254H917.197V208.922H957.434V104.305H1026.51V208.922H1113.02V265.254H1026.51V395.355C1026.51 450.347 1031.87 470.465 1064.73 485.219ZM1506 375.237V400.05H1245.13C1245.13 461.077 1303.48 490.584 1346.4 490.584C1377.92 490.584 1412.79 473.818 1431.57 446.993L1479.18 489.913C1457.05 520.091 1420.84 546.916 1346.4 546.916C1239.1 546.916 1173.38 473.818 1173.38 375.237C1173.38 276.655 1237.08 202.886 1339.69 202.886C1442.3 202.886 1489.24 259.889 1503.32 343.047C1505.33 353.777 1506 364.507 1506 375.237ZM1246.47 343.047H1433.58C1433.58 289.397 1390.66 259.889 1339.69 259.889C1288.72 259.889 1246.47 294.091 1246.47 343.047ZM1714.57 202.216C1809.8 202.216 1848.02 259.889 1848.02 308.845V540.21H1778.95V503.996C1754.81 536.857 1711.89 546.246 1685.06 546.246C1609.28 546.246 1559.65 501.985 1559.65 442.97C1559.65 360.483 1621.35 330.976 1685.06 330.976H1778.95V308.845C1778.95 288.056 1770.9 259.219 1714.57 259.219C1683.05 259.219 1654.21 275.984 1635.43 302.139L1587.82 259.219C1619.34 224.346 1664.27 202.216 1714.57 202.216ZM1778.95 436.934V387.308H1694.45C1653.54 387.308 1624.7 408.097 1629.4 445.652C1633.42 477.172 1658.91 489.913 1694.45 489.913C1758.16 489.913 1778.95 459.735 1778.95 436.934ZM2228.94 349.082V540.21H2159.19L2159.86 537.528V355.789C2159.86 288.726 2142.43 259.219 2085.42 259.219C2021.04 259.219 1998.24 304.151 1998.24 362.495V540.21H1929.17V208.922H1998.24V262.572C2007.63 233.064 2045.86 206.24 2085.42 203.557C2150.47 198.863 2196.75 220.323 2217.54 273.973C2231.62 228.37 2276.55 206.24 2315.45 203.557C2405.31 196.851 2458.96 240.441 2458.96 349.082V540.21H2389.89V355.789C2389.89 288.726 2372.45 259.219 2315.45 259.219C2257.77 259.219 2233.63 295.433 2228.94 349.082ZM2611.86 24.5005V540.21H2542.12V24.5005H2611.86ZM3000.15 208.922C3000.15 208.922 2916.33 407.427 2860.66 540.21C2813.72 651.534 2776.84 718.596 2714.47 718.596C2695.02 718.596 2670.21 709.207 2652.1 698.477L2672.89 638.121C2678.25 642.816 2690.33 649.522 2698.37 651.534C2750.01 666.287 2782.2 558.317 2804.33 505.338L2678.93 208.922H2748.67L2839.88 426.204L2930.41 208.922H3000.15Z" fill="#7E54F8"/>
</svg>
