<svg width="2717" height="600" viewBox="0 0 2717 600" fill="none" xmlns="http://www.w3.org/2000/svg">
<path d="M299.889 145.831L600.081 320.362V174.725L299.697 0L0.0810547 174.919V320.75L299.889 145.831Z" fill="url(#paint0_linear_1_3)"/>
<path d="M552.066 495.863L600.081 467.356V377.957L299.697 203.038L0.0810547 377.957V467.744L48.0964 495.863L299.697 348.869L552.066 495.863Z" fill="url(#paint1_linear_1_3)"/>
<path d="M299.889 555.591L376.137 600L501.362 527.279L299.697 409.761L98.8007 527.279L224.025 600L299.889 555.591Z" fill="url(#paint2_linear_1_3)"/>
<path d="M847.389 235.453V413.927H785.794V235.453H689V185.812H944.344V235.453H847.389ZM1249.94 402.638C1231.23 408.836 1212.56 413.291 1193.91 416.003C1175.26 418.715 1156.19 420.071 1136.71 420.071C1111.81 420.071 1089.64 417.386 1070.22 412.018C1050.79 406.65 1034.44 398.875 1021.16 388.692C1007.88 378.51 997.749 366.058 990.776 351.337C983.804 336.616 980.317 319.959 980.317 301.364C980.317 284.098 983.831 268.077 990.859 253.301C997.887 238.524 1007.85 225.686 1020.74 214.783C1033.64 203.879 1049.22 195.358 1067.48 189.215C1085.74 183.073 1106.11 180.001 1128.57 180.001C1149.27 180.001 1168.23 182.795 1185.44 188.385C1202.65 193.974 1217.43 202.248 1229.77 213.205C1242.11 224.162 1251.68 237.665 1258.49 253.715C1265.3 269.764 1268.7 288.248 1268.7 309.166V324.441H1043.91C1045.9 331.635 1049.19 338.221 1053.78 344.197C1058.38 350.174 1064.6 355.266 1072.46 359.472C1080.32 363.678 1089.98 366.943 1101.43 369.267C1112.89 371.591 1126.59 372.753 1142.52 372.753C1153.81 372.753 1164.88 372.061 1175.73 370.678C1186.58 369.295 1196.7 367.468 1206.11 365.199C1215.52 362.93 1224.01 360.412 1231.6 357.645C1239.18 354.878 1245.29 352.111 1249.94 349.344L1249.94 402.638ZM1207.44 279.281C1206.88 273.636 1205.2 267.797 1202.37 261.766C1199.55 255.735 1195.1 250.283 1189.01 245.413C1182.92 240.543 1174.95 236.531 1165.1 233.376C1155.25 230.222 1142.97 228.644 1128.24 228.644C1114.41 228.644 1102.46 230.36 1092.38 233.791C1082.31 237.222 1073.87 241.484 1067.06 246.575C1060.26 251.666 1054.97 257.145 1051.21 263.011C1047.45 268.877 1045.01 274.301 1043.9 279.282L1207.44 279.281ZM1528.63 413.927V391.514C1520.78 395.831 1512.34 399.649 1503.32 402.97C1494.3 406.291 1484.92 409.113 1475.18 411.437C1465.43 413.762 1455.39 415.505 1445.04 416.667C1434.69 417.829 1424.26 418.41 1413.75 418.41C1401.46 418.41 1389.59 417.248 1378.13 414.924C1366.68 412.599 1356.52 408.836 1347.67 403.634C1338.82 398.433 1331.7 391.625 1326.33 383.214C1320.97 374.803 1318.28 364.508 1318.28 352.334C1318.28 336.949 1322.49 324.138 1330.9 313.899C1339.31 303.66 1352.15 295.276 1369.42 288.746C1386.69 282.216 1408.52 277.18 1434.92 273.639C1461.31 270.097 1492.55 267.33 1528.63 265.337V260.523C1528.63 256.759 1527.64 253.024 1525.64 249.316C1523.65 245.608 1520.03 242.343 1514.77 239.521C1509.51 236.699 1502.32 234.402 1493.19 232.631C1484.05 230.86 1472.4 229.974 1458.24 229.974C1447.06 229.974 1436.02 230.555 1425.12 231.718C1414.21 232.88 1403.7 234.457 1393.57 236.449C1383.44 238.442 1373.84 240.766 1364.77 243.422C1355.69 246.079 1347.45 248.846 1340.03 251.723V196.936C1347.78 194.943 1356.47 193.006 1366.09 191.125C1375.72 189.244 1385.74 187.611 1396.15 186.227C1406.55 184.844 1417.06 183.737 1427.69 182.907C1438.31 182.077 1448.5 181.662 1458.24 181.662C1477.39 181.662 1495.04 183.239 1511.2 186.393C1527.36 189.548 1541.28 194.446 1552.95 201.086C1564.63 207.727 1573.76 216.139 1580.35 226.322C1586.94 236.506 1590.23 248.624 1590.23 262.681V413.929L1528.63 413.927ZM1528.63 309.831C1504.95 310.717 1484.83 311.989 1468.28 313.649C1451.74 315.31 1437.99 317.247 1427.03 319.46C1416.07 321.674 1407.47 324.053 1401.21 326.599C1394.96 329.145 1390.28 331.746 1387.18 334.402C1384.08 337.059 1382.17 339.715 1381.45 342.371C1380.74 345.028 1380.38 347.463 1380.38 349.676C1380.38 352.333 1381.1 354.906 1382.53 357.396C1383.97 359.887 1386.49 362.073 1390.09 363.954C1393.69 365.836 1398.47 367.33 1404.45 368.437C1410.43 369.544 1417.95 370.097 1427.03 370.097C1437.1 370.097 1446.95 369.322 1456.58 367.773C1466.21 366.223 1475.34 364.093 1483.98 361.381C1492.61 358.669 1500.72 355.46 1508.3 351.752C1515.88 348.044 1522.66 344.087 1528.64 339.881L1528.63 309.831ZM1732.78 185.81V210.881C1738.21 207.449 1744.1 203.908 1750.47 200.255C1756.83 196.603 1763.75 193.282 1771.22 190.293C1778.69 187.305 1786.71 184.842 1795.29 182.905C1803.87 180.968 1813.14 180 1823.1 180C1832.84 180 1841.36 181.024 1848.67 183.071C1855.97 185.119 1862.31 187.775 1867.68 191.041C1873.05 194.306 1877.61 197.958 1881.37 201.998C1885.14 206.039 1888.4 210.051 1891.17 214.035C1899.03 208.944 1906.78 204.295 1914.41 200.089C1922.05 195.883 1929.74 192.286 1937.49 189.298C1945.24 186.31 1953.15 184.013 1961.23 182.408C1969.31 180.803 1977.72 180.001 1986.47 180.001C2000.41 180.001 2012.89 181.938 2023.91 185.811C2034.92 189.685 2044.24 194.998 2051.88 201.75C2059.52 208.502 2065.36 216.443 2069.4 225.574C2073.44 234.705 2075.46 244.472 2075.46 254.877V413.928H2013.86V263.675C2013.86 257.588 2012.92 252.331 2011.04 247.903C2009.16 243.475 2006.64 239.878 2003.48 237.111C2000.33 234.343 1996.62 232.296 1992.36 230.968C1988.1 229.639 1983.59 228.975 1978.83 228.975C1956.69 228.975 1931.46 238.937 1903.12 258.859C1903.46 260.741 1903.7 262.954 1903.87 265.5C1904.04 268.046 1904.12 270.591 1904.12 273.137V413.929H1842.52V262.35C1842.52 256.262 1841.58 251.088 1839.7 246.827C1837.82 242.565 1835.25 239.107 1831.98 236.45C1828.72 233.794 1824.95 231.884 1820.69 230.722C1816.43 229.56 1811.92 228.979 1807.16 228.979C1801.41 228.979 1795.35 229.809 1788.98 231.469C1782.62 233.13 1776.2 235.454 1769.72 238.442C1763.25 241.431 1756.88 244.973 1750.63 249.068C1744.38 253.163 1738.43 257.59 1732.78 262.35V413.929H1671.19V185.812L1732.78 185.81ZM2218.01 316.309C2218.01 325.827 2218.9 333.603 2220.67 339.634C2222.44 345.666 2225.32 350.454 2229.3 353.995C2233.29 357.536 2238.46 359.972 2244.82 361.3C2251.19 362.628 2259.02 363.292 2268.32 363.292H2385.2V413.929H2255.7C2237.77 413.929 2222.53 412.463 2209.96 409.53C2197.4 406.597 2187.14 402.059 2179.17 395.915C2171.2 389.772 2165.41 381.997 2161.82 372.59C2158.22 363.182 2156.42 352.002 2156.42 339.053V185.816H2218.02L2218.01 316.309ZM2716.03 326.263C2716.03 341.094 2712.37 354.321 2705.07 365.942C2697.76 377.564 2687.39 387.388 2673.94 395.412C2660.49 403.435 2644.22 409.551 2625.13 413.757C2606.04 417.963 2584.65 420.066 2560.96 420.066C2550.56 420.066 2539.63 419.651 2528.17 418.821C2516.72 417.991 2505.54 416.829 2494.63 415.334C2483.73 413.84 2473.52 412.125 2464 410.188C2454.48 408.251 2446.46 406.12 2439.93 403.796V349.672C2447.01 352.66 2454.9 355.483 2463.59 358.139C2472.28 360.796 2481.71 363.148 2491.9 365.195C2502.08 367.243 2513.01 368.848 2524.68 370.01C2536.36 371.172 2548.73 371.753 2561.79 371.753C2574.08 371.753 2584.9 371.034 2594.25 369.595C2603.6 368.156 2611.71 366.219 2618.57 363.784C2625.43 361.349 2631.13 358.554 2635.67 355.4C2640.21 352.245 2643.86 348.98 2646.63 345.605C2649.4 342.229 2651.36 338.881 2652.52 335.561C2653.68 332.241 2654.27 329.141 2654.27 326.263V306.174C2642.98 314.475 2629.53 321.31 2613.92 326.678C2598.32 332.046 2580.55 334.73 2560.63 334.73C2537.5 334.73 2518.21 332.489 2502.77 328.006C2487.33 323.523 2474.96 317.048 2465.66 308.581C2456.37 300.113 2449.75 289.791 2445.82 277.617C2441.89 265.443 2439.93 251.717 2439.93 236.443V185.806H2501.86V230.301C2501.86 239.266 2503.05 247.235 2505.43 254.208C2507.81 261.181 2511.57 267.02 2516.72 271.723C2521.86 276.426 2528.53 279.996 2536.72 282.432C2544.91 284.867 2554.82 286.084 2566.44 286.084C2576.29 286.084 2585.62 284.867 2594.41 282.432C2603.21 279.997 2611.32 276.787 2618.74 272.803C2626.15 268.818 2632.85 264.28 2638.83 259.188C2644.8 254.097 2649.95 248.895 2654.27 243.582V185.806H2716.03L2716.03 326.263Z" fill="#3D8CBF"/>
<defs>
<linearGradient id="paint0_linear_1_3" x1="0.0810547" y1="0" x2="600.081" y2="0" gradientUnits="userSpaceOnUse">
<stop stop-color="#2D388A"/>
<stop offset="1" stop-color="#00AEEF"/>
</linearGradient>
<linearGradient id="paint1_linear_1_3" x1="0.0810547" y1="203.038" x2="600.081" y2="203.038" gradientUnits="userSpaceOnUse">
<stop stop-color="#2D388A"/>
<stop offset="1" stop-color="#00AEEF"/>
</linearGradient>
<linearGradient id="paint2_linear_1_3" x1="98.8007" y1="409.761" x2="501.362" y2="409.761" gradientUnits="userSpaceOnUse">
<stop stop-color="#2D388A"/>
<stop offset="1" stop-color="#00AEEF"/>
</linearGradient>
</defs>
</svg>
