<svg width="3001" height="804" viewBox="0 0 3001 804" fill="none" xmlns="http://www.w3.org/2000/svg">
<path d="M405.227 195.257L810.892 428.845V233.929L404.967 0.0810547L0.0810547 234.188V429.364L405.227 195.257Z" fill="#7E54F8"/>
<path d="M746.006 663.731L810.892 625.578V505.929L404.967 271.822L0.0810547 505.929V626.098L64.9667 663.731L404.967 466.998L746.006 663.731Z" fill="#7E54F8"/>
<path d="M405.227 743.67L508.265 803.106L677.487 705.777L404.967 548.494L133.486 705.777L302.708 803.106L405.227 743.67Z" fill="#7E54F8"/>
<path d="M973.054 296.295V247.017H1020.53L1021.73 176.705L1089.64 171.897L1087.24 247.017H1176.78V296.295H1087.24C1086.64 346.174 1086.03 395.453 1086.03 442.328C1086.03 499.418 1098.65 513.841 1129.9 513.841C1147.93 513.841 1167.16 507.832 1182.19 501.822L1179.78 551.101C1162.96 559.514 1137.12 566.726 1110.67 566.726C1044.57 566.726 1018.73 540.885 1018.73 470.573C1018.73 430.308 1019.93 350.381 1020.53 296.295H973.054ZM1477.26 489.803L1473.65 545.091C1452.02 554.106 1410.55 566.726 1363.68 566.726C1260.31 566.125 1199.01 502.423 1199.01 404.467C1199.01 311.92 1251.3 239.805 1352.26 239.805C1446.01 239.805 1493.48 308.314 1493.48 405.068V414.083H1269.93C1270.53 474.779 1315 513.841 1376.9 513.841C1415.96 513.841 1450.21 503.625 1477.26 489.803ZM1269.93 368.41H1422.57V362.4C1422.57 336.559 1405.74 289.084 1348.65 289.084C1291.56 289.084 1272.33 330.55 1269.93 368.41ZM1559.59 345.574V268.05C1576.41 260.238 1616.68 239.805 1683.39 239.805C1775.93 239.805 1805.38 285.478 1805.38 359.396C1805.38 409.876 1803.58 459.755 1802.98 510.236H1845.04V559.514H1745.88C1745.88 539.683 1747.69 515.644 1751.29 494.611H1750.09C1736.87 530.067 1711.63 566.726 1646.13 566.726C1571.01 566.726 1546.37 516.846 1546.37 477.183C1546.37 394.852 1629.9 384.035 1680.98 381.631L1745.28 378.025V354.588C1745.28 316.127 1731.46 289.084 1676.17 289.084C1652.74 289.084 1629.9 295.694 1619.68 299.901V345.574H1559.59ZM1613.67 471.774C1613.67 495.212 1631.7 513.841 1663.55 513.841C1715.84 513.841 1744.08 474.178 1744.08 434.515V421.895C1674.37 422.496 1613.67 425.501 1613.67 471.774ZM1896.72 559.514V510.236H1932.18L1933.38 296.295H1889.51V247.017H2000.69C2000.69 268.05 1998.89 289.685 1994.68 316.127H1995.88C2008.5 269.853 2050.57 239.805 2102.85 239.805C2164.75 239.805 2193 271.656 2199.01 310.718H2200.21C2214.63 265.045 2254.29 239.805 2307.18 239.805C2379.29 239.805 2414.75 286.079 2414.75 360.597C2414.75 410.477 2414.15 460.356 2412.35 510.236H2453.21V559.514H2309.58V510.236H2345.04C2346.84 464.563 2347.44 418.289 2347.44 372.617C2347.44 328.747 2327.01 296.295 2284.34 296.295C2238.67 296.295 2209.22 332.953 2208.02 391.246L2206.82 510.236H2246.48V559.514H2105.26V510.236H2139.51L2140.71 384.636C2141.31 336.559 2128.69 296.295 2078.21 296.295C2037.95 296.295 2001.29 332.953 2000.69 391.246L1999.49 510.236H2041.56V559.514H1896.72ZM2495.28 559.514V510.236H2533.14L2535.54 146.657H2480.85V97.3784H2602.85L2600.45 510.236H2642.51V559.514H2495.28ZM2656.33 296.295V247.017H2799.36V296.295H2764.51L2824.6 456.751C2830.61 472.375 2834.22 489.803 2838.42 503.625H2839.63C2842.63 489.803 2848.04 472.375 2853.45 456.751L2908.74 296.295H2867.87V247.017H3000.08V296.295H2968.83L2873.88 557.711C2863.66 585.956 2842.63 644.249 2824.6 667.686C2796.36 704.345 2757.29 717.566 2717.03 717.566C2700.2 717.566 2683.98 714.561 2674.36 710.955V658.071C2683.98 662.278 2704.41 664.682 2718.23 664.682C2748.28 664.682 2777.13 652.061 2802.97 582.951L2805.37 576.341L2689.99 296.295H2656.33Z" fill="#7E54F8"/>
</svg>
