<svg width="3000" height="511" viewBox="0 0 3000 511" fill="none" xmlns="http://www.w3.org/2000/svg">
<path d="M257.568 124.082L515.465 272.584V148.668L257.403 0.00146484L0.00146484 148.833V272.914L257.568 124.082Z" fill="#7E54F8"/>
<path d="M474.215 421.91L515.465 397.655V321.589L257.403 172.758L0.00146484 321.589V397.985L41.2518 421.91L257.403 296.839L474.215 421.91Z" fill="#7E54F8"/>
<path d="M257.568 472.73L323.074 510.515L430.655 448.64L257.403 348.649L84.812 448.64L192.393 510.515L257.568 472.73Z" fill="#7E54F8"/>
<path d="M861.663 184.96V389.194H791.178V184.96H680.414V128.155H972.611V184.96H861.663ZM1322.31 376.275C1300.91 383.368 1279.53 388.466 1258.19 391.569C1236.85 394.672 1215.03 396.224 1192.74 396.224C1164.25 396.224 1138.88 393.152 1116.65 387.009C1094.43 380.866 1075.71 371.969 1060.51 360.317C1045.31 348.664 1033.72 334.416 1025.75 317.57C1017.77 300.725 1013.78 281.663 1013.78 260.385C1013.78 240.626 1017.8 222.293 1025.84 205.384C1033.88 188.475 1045.28 173.784 1060.04 161.307C1074.79 148.829 1092.62 139.078 1113.52 132.049C1134.42 125.02 1157.72 121.505 1183.43 121.505C1207.12 121.505 1228.81 124.703 1248.5 131.099C1268.2 137.495 1285.11 146.963 1299.23 159.501C1313.35 172.04 1324.31 187.492 1332.1 205.858C1339.89 224.224 1343.78 245.375 1343.78 269.313V286.791H1086.54C1088.82 295.024 1092.59 302.56 1097.85 309.4C1103.1 316.239 1110.23 322.065 1119.22 326.879C1128.21 331.692 1139.26 335.428 1152.37 338.087C1165.48 340.747 1181.16 342.077 1199.39 342.077C1212.31 342.077 1224.98 341.285 1237.39 339.702C1249.8 338.119 1261.39 336.029 1272.16 333.433C1282.93 330.836 1292.65 327.955 1301.32 324.788C1310 321.622 1317 318.455 1322.32 315.289L1322.31 376.275ZM1273.68 235.114C1273.04 228.654 1271.11 221.972 1267.88 215.071C1264.65 208.169 1259.56 201.93 1252.59 196.357C1245.62 190.785 1236.5 186.193 1225.23 182.584C1213.96 178.974 1199.9 177.169 1183.05 177.169C1167.22 177.169 1153.54 179.132 1142.02 183.058C1130.49 186.985 1120.83 191.861 1113.04 197.687C1105.25 203.513 1099.21 209.783 1094.9 216.496C1090.59 223.209 1087.81 229.415 1086.54 235.115L1273.68 235.114ZM1641.23 389.194V363.546C1632.24 368.485 1622.58 372.855 1612.26 376.655C1601.94 380.455 1591.2 383.685 1580.06 386.344C1568.91 389.004 1557.42 390.999 1545.58 392.329C1533.73 393.659 1521.8 394.324 1509.76 394.324C1495.7 394.324 1482.12 392.994 1469.01 390.334C1455.9 387.674 1444.28 383.368 1434.15 377.415C1424.02 371.463 1415.88 363.673 1409.74 354.047C1403.59 344.422 1400.52 332.642 1400.52 318.71C1400.52 301.105 1405.33 286.445 1414.96 274.728C1424.59 263.012 1439.28 253.418 1459.04 245.945C1478.8 238.473 1503.78 232.709 1533.99 228.657C1564.19 224.605 1599.94 221.438 1641.23 219.158V213.648C1641.23 209.342 1640.09 205.067 1637.81 200.824C1635.53 196.58 1631.38 192.844 1625.37 189.615C1619.35 186.386 1611.12 183.757 1600.67 181.731C1590.22 179.704 1576.89 178.691 1560.68 178.691C1547.88 178.691 1535.25 179.356 1522.77 180.686C1510.3 182.016 1498.27 183.821 1486.68 186.1C1475.09 188.38 1464.1 191.04 1453.71 194.08C1443.33 197.119 1433.89 200.286 1425.41 203.579V140.884C1434.27 138.604 1444.21 136.387 1455.23 134.234C1466.25 132.081 1477.71 130.213 1489.62 128.63C1501.53 127.047 1513.56 125.78 1525.72 124.83C1537.88 123.88 1549.53 123.405 1560.68 123.405C1582.59 123.405 1602.79 125.21 1621.28 128.82C1639.77 132.43 1655.7 138.034 1669.06 145.634C1682.42 153.233 1692.87 162.859 1700.41 174.512C1707.95 186.165 1711.72 200.032 1711.72 216.118V389.195L1641.23 389.194ZM1641.23 270.073C1614.13 271.087 1591.11 272.543 1572.17 274.443C1553.24 276.343 1537.5 278.559 1524.96 281.092C1512.42 283.625 1502.58 286.348 1495.42 289.261C1488.26 292.174 1482.91 295.151 1479.37 298.191C1475.82 301.23 1473.63 304.27 1472.81 307.31C1471.99 310.35 1471.58 313.136 1471.58 315.669C1471.58 318.709 1472.4 321.654 1474.05 324.504C1475.69 327.354 1478.57 329.855 1482.69 332.008C1486.81 334.161 1492.28 335.871 1499.12 337.138C1505.96 338.404 1514.58 339.038 1524.96 339.038C1536.49 339.038 1547.76 338.151 1558.78 336.378C1569.8 334.605 1580.25 332.166 1590.13 329.063C1600.01 325.96 1609.28 322.287 1617.96 318.044C1626.64 313.801 1634.4 309.274 1641.23 304.46L1641.23 270.073ZM1874.85 128.153V156.841C1881.05 152.915 1887.8 148.862 1895.08 144.682C1902.36 140.502 1910.28 136.703 1918.83 133.283C1927.38 129.863 1936.56 127.045 1946.38 124.828C1956.19 122.612 1966.8 121.504 1978.2 121.504C1989.34 121.504 1999.1 122.675 2007.46 125.018C2015.82 127.362 2023.07 130.401 2029.21 134.138C2035.35 137.874 2040.58 142.054 2044.88 146.677C2049.19 151.3 2052.93 155.891 2056.09 160.451C2065.09 154.625 2073.95 149.305 2082.69 144.492C2091.43 139.679 2100.23 135.563 2109.1 132.144C2117.96 128.724 2127.02 126.096 2136.27 124.259C2145.51 122.423 2155.14 121.504 2165.15 121.504C2181.1 121.504 2195.39 123.721 2207.99 128.154C2220.59 132.587 2231.26 138.666 2240 146.393C2248.74 154.119 2255.42 163.206 2260.04 173.655C2264.66 184.104 2266.98 195.281 2266.98 207.188V389.195H2196.49V217.256C2196.49 210.289 2195.42 204.274 2193.26 199.207C2191.11 194.14 2188.23 190.024 2184.62 186.857C2181.01 183.69 2176.77 181.347 2171.89 179.827C2167.01 178.308 2161.85 177.548 2156.41 177.548C2131.07 177.548 2102.2 188.947 2069.77 211.745C2070.15 213.898 2070.44 216.431 2070.63 219.344C2070.82 222.257 2070.91 225.17 2070.91 228.083V389.196H2000.43V215.739C2000.43 208.773 1999.35 202.852 1997.2 197.975C1995.04 193.099 1992.1 189.141 1988.36 186.101C1984.63 183.061 1980.32 180.877 1975.44 179.547C1970.57 178.217 1965.41 177.552 1959.96 177.552C1953.37 177.552 1946.44 178.502 1939.16 180.402C1931.87 182.302 1924.53 184.961 1917.12 188.381C1909.71 191.801 1902.43 195.854 1895.27 200.54C1888.11 205.227 1881.31 210.293 1874.85 215.739V389.196H1804.36V128.155L1874.85 128.153ZM2430.11 277.486C2430.11 288.378 2431.12 297.277 2433.15 304.178C2435.17 311.08 2438.47 316.559 2443.03 320.611C2447.59 324.664 2453.51 327.451 2460.79 328.971C2468.07 330.491 2477.03 331.251 2487.67 331.251H2621.42V389.196H2473.24C2452.72 389.196 2435.27 387.518 2420.9 384.161C2406.52 380.805 2394.77 375.612 2385.66 368.582C2376.54 361.552 2369.92 352.655 2365.8 341.89C2361.69 331.124 2359.63 318.331 2359.63 303.513V128.159H2430.11L2430.11 277.486ZM3000 288.876C3000 305.848 2995.82 320.984 2987.46 334.283C2979.1 347.582 2967.23 358.824 2951.84 368.006C2936.45 377.187 2917.83 384.186 2895.98 388.999C2874.13 393.812 2849.66 396.218 2822.55 396.218C2810.65 396.218 2798.14 395.744 2785.03 394.794C2771.92 393.844 2759.13 392.514 2746.65 390.804C2734.18 389.094 2722.49 387.131 2711.6 384.914C2700.71 382.698 2691.53 380.26 2684.06 377.6V315.664C2692.16 319.084 2701.19 322.314 2711.13 325.354C2721.07 328.393 2731.87 331.085 2743.52 333.428C2755.17 335.771 2767.68 337.608 2781.04 338.938C2794.4 340.268 2808.56 340.933 2823.5 340.933C2837.56 340.933 2849.94 340.109 2860.65 338.463C2871.35 336.816 2880.63 334.6 2888.48 331.813C2896.33 329.027 2902.86 325.829 2908.05 322.219C2913.24 318.609 2917.42 314.873 2920.59 311.01C2923.75 307.147 2926 303.316 2927.33 299.516C2928.66 295.717 2929.33 292.17 2929.33 288.877V265.888C2916.41 275.387 2901.02 283.209 2883.16 289.351C2865.3 295.494 2844.97 298.566 2822.17 298.566C2795.7 298.566 2773.63 296.001 2755.97 290.871C2738.3 285.742 2724.14 278.332 2713.5 268.642C2702.86 258.953 2695.3 247.141 2690.8 233.21C2686.3 219.279 2684.06 203.572 2684.06 186.093V128.148H2754.92V179.064C2754.92 189.323 2756.28 198.443 2759.01 206.422C2761.73 214.401 2766.04 221.083 2771.92 226.465C2777.81 231.847 2785.45 235.933 2794.82 238.719C2804.19 241.506 2815.53 242.899 2828.82 242.899C2840.1 242.899 2850.77 241.506 2860.84 238.719C2870.91 235.933 2880.18 232.26 2888.67 227.7C2897.16 223.141 2904.82 217.948 2911.66 212.121C2918.5 206.295 2924.39 200.342 2929.33 194.263V128.148H3000L3000 288.876Z" fill="#7E54F8"/>
</svg>
