<svg viewBox="0 0 54 54" fill="none" xmlns="http://www.w3.org/2000/svg">
<path d="M33.4999 28.4496V35.2746C33.4999 40.9745 31.2249 43.2495 25.5249 43.2495H18.725C13.05 43.2495 10.75 40.9745 10.75 35.2746V28.4496C10.75 22.7746 13.025 20.4996 18.725 20.4996H25.5499C31.2249 20.4996 33.4999 22.7746 33.4999 28.4496Z" stroke="currentcolor" stroke-width="3" stroke-linecap="round" stroke-linejoin="round"></path>
<path d="M43.2498 18.6997V25.5247C43.2498 31.2246 40.9748 33.4996 35.2748 33.4996H33.4998V28.4497C33.4998 22.7747 31.2248 20.4997 25.5249 20.4997H20.4999V18.6997C20.4999 12.9997 22.7749 10.7498 28.4748 10.7498H35.2998C40.9748 10.7498 43.2498 13.0247 43.2498 18.6997Z" stroke="currentcolor" stroke-width="3" stroke-linecap="round" stroke-linejoin="round"></path>
<path d="M51.9997 34.5004C51.9997 44.1753 44.1748 52.0003 34.4998 52.0003L37.1248 47.6253" stroke="currentcolor" stroke-width="3" stroke-linecap="round" stroke-linejoin="round"></path>
<path d="M2 19.4999C2 9.82496 9.82496 2 19.4999 2L16.8749 6.37498" stroke="currentcolor" stroke-width="3" stroke-linecap="round" stroke-linejoin="round"></path>
</svg>