<svg width="50" height="50" viewBox="0 0 50 50" fill="none" xmlns="http://www.w3.org/2000/svg">
<path d="M25.0007 47.4165C22.7298 47.4165 20.4798 46.7499 18.709 45.4374L9.75065 38.7499C7.37565 36.979 5.52148 33.2707 5.52148 30.3332V14.8332C5.52148 11.6249 7.87565 8.20821 10.8965 7.08321L21.2923 3.18738C23.3548 2.41654 26.6048 2.41654 28.6673 3.18738L39.0632 7.08321C42.084 8.20821 44.4381 11.6249 44.4381 14.8332V30.3124C44.4381 33.2707 42.584 36.9582 40.209 38.729L31.2507 45.4165C29.5215 46.7499 27.2715 47.4165 25.0007 47.4165ZM22.3965 6.12488L12.0007 10.0207C10.2298 10.6874 8.66732 12.9374 8.66732 14.854V30.3332C8.66732 32.3124 10.0632 35.0832 11.6257 36.2499L20.584 42.9374C22.9798 44.729 27.0215 44.729 29.4381 42.9374L38.3965 36.2499C39.9798 35.0624 41.3548 32.3124 41.3548 30.3332V14.8332C41.3548 12.9374 39.7923 10.6874 38.0215 9.99988L27.6257 6.10404C26.209 5.60404 23.7923 5.60404 22.3965 6.12488Z" fill="#FFF"/>
<path d="M22.2083 29.646C21.8125 29.646 21.4167 29.5002 21.1042 29.1877L17.75 25.8335C17.1458 25.2293 17.1458 24.2293 17.75 23.6252C18.3542 23.021 19.3542 23.021 19.9583 23.6252L22.2083 25.8752L30.0625 18.021C30.6667 17.4168 31.6667 17.4168 32.2708 18.021C32.875 18.6252 32.875 19.6252 32.2708 20.2293L23.3125 29.1877C23 29.5002 22.6042 29.646 22.2083 29.646Z" fill="#FFF"/>
</svg>
