<svg width="60" height="60" viewBox="0 0 60 60" fill="none" xmlns="http://www.w3.org/2000/svg">
<path d="M44.9999 17.9C44.8499 17.875 44.6749 17.875 44.5249 17.9C41.0749 17.775 38.3249 14.95 38.3249 11.45C38.3249 7.875 41.1999 5 44.7749 5C48.3499 5 51.2249 7.9 51.2249 11.45C51.1999 14.95 48.4499 17.775 44.9999 17.9Z" stroke="currentcolor" stroke-width="3" stroke-linecap="round" stroke-linejoin="round"></path>
<path d="M42.4249 36.0998C45.8499 36.6748 49.6249 36.0748 52.2749 34.2998C55.7999 31.9498 55.7999 28.0998 52.2749 25.7498C49.5999 23.9748 45.7749 23.3748 42.3499 23.9748" stroke="currentcolor" stroke-width="3" stroke-linecap="round" stroke-linejoin="round"></path>
<path d="M14.9246 17.9C15.0746 17.875 15.2496 17.875 15.3996 17.9C18.8496 17.775 21.5996 14.95 21.5996 11.45C21.5996 7.875 18.7246 5 15.1496 5C11.5746 5 8.69955 7.9 8.69955 11.45C8.72455 14.95 11.4746 17.775 14.9246 17.9Z" stroke="currentcolor" stroke-width="3" stroke-linecap="round" stroke-linejoin="round"></path>
<path d="M17.4996 36.0998C14.0746 36.6748 10.2996 36.0748 7.64961 34.2998C4.12461 31.9498 4.12461 28.0998 7.64961 25.7498C10.3246 23.9748 14.1496 23.3748 17.5746 23.9748" stroke="currentcolor" stroke-width="3" stroke-linecap="round" stroke-linejoin="round"></path>
<path d="M29.9999 36.5751C29.8499 36.5501 29.6749 36.5501 29.5249 36.5751C26.0749 36.4501 23.3249 33.6251 23.3249 30.1251C23.3249 26.5501 26.1999 23.675 29.7749 23.675C33.3499 23.675 36.2249 26.5751 36.2249 30.1251C36.1999 33.6251 33.4499 36.4751 29.9999 36.5751Z" stroke="currentcolor" stroke-width="3" stroke-linecap="round" stroke-linejoin="round"></path>
<path d="M22.7249 44.4495C19.1999 46.7995 19.1999 50.6495 22.7249 52.9995C26.7249 55.6745 33.2749 55.6745 37.2749 52.9995C40.7999 50.6495 40.7999 46.7995 37.2749 44.4495C33.2999 41.7995 26.7249 41.7995 22.7249 44.4495Z" stroke="currentcolor" stroke-width="3" stroke-linecap="round" stroke-linejoin="round"></path>
</svg>