<svg width="50" height="50" viewBox="0 0 50 50" fill="none" xmlns="http://www.w3.org/2000/svg">
<path d="M16.666 47.3956C8.91602 47.3956 2.60352 41.0831 2.60352 33.3331C2.60352 26.9997 6.85352 21.4164 12.9577 19.7706C13.7285 19.5622 14.5202 19.9581 14.8119 20.7081C16.0827 23.8956 18.791 26.3331 22.1035 27.2289C23.9368 27.7289 26.0618 27.7289 27.8535 27.2289C28.6244 27.0206 29.4369 27.4164 29.7285 28.1664C30.3744 29.8122 30.7077 31.5622 30.7077 33.3539C30.7077 37.3539 28.9993 41.1664 26.0202 43.8122C23.4785 46.1039 20.1452 47.3956 16.666 47.3956ZM12.541 23.1872C8.47852 24.8539 5.72852 28.8539 5.72852 33.3331C5.72852 39.3539 10.6452 44.2706 16.666 44.2706C19.3743 44.2706 21.9577 43.2706 23.9577 41.4581C26.291 39.3956 27.6035 36.4372 27.6035 33.3331C27.6035 32.3747 27.4785 31.4581 27.2494 30.5622C25.291 30.8747 23.166 30.7706 21.291 30.2497C17.5202 29.2081 14.3535 26.6247 12.541 23.1872Z" fill="#7E54F8"/>
<path d="M25 30.729C23.7083 30.729 22.4583 30.5623 21.2917 30.229C17.0625 29.0623 13.5417 25.9373 11.9167 21.8332C11.2708 20.2082 10.9375 18.4582 10.9375 16.6665C10.9375 8.9165 17.25 2.604 25 2.604C32.75 2.604 39.0625 8.9165 39.0625 16.6665C39.0625 18.4582 38.7292 20.2082 38.0833 21.854C36.4583 25.9373 32.9583 29.0832 28.7083 30.2498C27.5417 30.5623 26.2917 30.729 25 30.729ZM25 5.729C18.9792 5.729 14.0625 10.6457 14.0625 16.6665C14.0625 18.0623 14.3125 19.4165 14.8333 20.6873C16.1042 23.8748 18.8125 26.3123 22.125 27.2082C23.9583 27.7082 26.0833 27.7082 27.875 27.2082C31.1875 26.3123 33.9167 23.854 35.1667 20.6873C35.6667 19.4165 35.9375 18.0623 35.9375 16.6665C35.9375 10.6457 31.0208 5.729 25 5.729Z" fill="#7E54F8"/>
<path d="M33.3333 47.3957C29.8542 47.3957 26.5208 46.104 23.9583 43.7915C23.625 43.4999 23.4375 43.0623 23.4375 42.6248C23.4375 42.1873 23.625 41.7498 23.9583 41.4582C26.2708 39.4165 27.6042 36.4582 27.6042 33.3332C27.6042 31.9373 27.3542 30.5832 26.8333 29.3123C26.6667 28.8957 26.6875 28.4374 26.8958 28.0415C27.1042 27.6457 27.4583 27.354 27.875 27.229C31.1875 26.3332 33.8958 23.8957 35.1667 20.7082C35.4583 19.9582 36.2708 19.5832 37.0208 19.7707C43.125 21.4373 47.375 26.9998 47.375 33.3332C47.3958 41.0832 41.0833 47.3957 33.3333 47.3957ZM27.3333 42.479C29.1042 43.6457 31.1667 44.2707 33.3333 44.2707C39.3542 44.2707 44.2708 39.354 44.2708 33.3332C44.2708 28.854 41.5208 24.854 37.4583 23.1873C35.9167 26.1248 33.3333 28.4582 30.25 29.7082C30.5625 30.8749 30.7292 32.104 30.7292 33.3332C30.7292 36.7082 29.5208 39.9582 27.3333 42.479Z" fill="#7E54F8"/>
</svg>
