<svg viewBox="0 0 49 49" fill="none" xmlns="http://www.w3.org/2000/svg">
<path d="M8.125 1.35417C8.125 0.995019 8.26767 0.650582 8.52163 0.396626C8.77558 0.142671 9.12002 0 9.47917 0H39.2708C39.63 0 39.9744 0.142671 40.2284 0.396626C40.4823 0.650582 40.625 0.995019 40.625 1.35417V2.70833H47.3958C47.755 2.70833 48.0994 2.851 48.3534 3.10496C48.6073 3.35892 48.75 3.70335 48.75 4.0625V12.1875C48.75 13.9832 48.0366 15.7054 46.7669 16.9752C45.4971 18.245 43.7749 18.9583 41.9792 18.9583H39.7001C37.6133 24.8625 32.2116 29.2012 25.7292 29.7361V37.9167H35.2083C35.5675 37.9167 35.9119 38.0593 36.1659 38.3133C36.4198 38.5672 36.5625 38.9117 36.5625 39.2708V47.3958C36.5625 47.755 36.4198 48.0994 36.1659 48.3534C35.9119 48.6073 35.5675 48.75 35.2083 48.75H13.5417C13.1825 48.75 12.8381 48.6073 12.5841 48.3534C12.3302 48.0994 12.1875 47.755 12.1875 47.3958V39.2708C12.1875 38.9117 12.3302 38.5672 12.5841 38.3133C12.8381 38.0593 13.1825 37.9167 13.5417 37.9167H23.0208V29.7361C16.5398 29.2012 11.1367 24.8625 9.0499 18.9583H6.77083C4.9751 18.9583 3.25291 18.245 1.98313 16.9752C0.713354 15.7054 0 13.9832 0 12.1875V4.0625C0 3.70335 0.142671 3.35892 0.396626 3.10496C0.650582 2.851 0.995019 2.70833 1.35417 2.70833H8.125V1.35417ZM37.9167 13.5417V2.70833H10.8333V13.5417C10.8333 21.0207 16.8959 27.0833 24.375 27.0833C31.8541 27.0833 37.9167 21.0207 37.9167 13.5417ZM40.625 5.41667V16.25H41.9792C43.0566 16.25 44.0899 15.822 44.8518 15.0601C45.6137 14.2983 46.0417 13.2649 46.0417 12.1875V5.41667H40.625ZM2.70833 5.41667H8.125V16.25H6.77083C5.69339 16.25 4.66008 15.822 3.89821 15.0601C3.13634 14.2983 2.70833 13.2649 2.70833 12.1875V5.41667ZM14.8958 40.625V46.0417H33.8542V40.625H14.8958Z" fill="currentcolor"></path>
</svg>