<svg width="50" height="50" viewBox="0 0 50 50" fill="none" xmlns="http://www.w3.org/2000/svg">
<path d="M22.958 42.1875H15.6247C14.0622 42.1875 12.9163 42.125 11.9372 41.9792C4.99967 41.2083 3.64551 37.0833 3.64551 30.2083V19.7917C3.64551 12.9167 5.02051 8.77083 11.9997 8C12.9163 7.875 14.0622 7.8125 15.6247 7.8125H22.833C23.6872 7.8125 24.3955 8.52083 24.3955 9.375C24.3955 10.2292 23.6872 10.9375 22.833 10.9375H15.6247C14.208 10.9375 13.208 11 12.3955 11.1042C8.16634 11.5625 6.77051 12.8958 6.77051 19.7917V30.2083C6.77051 37.1042 8.16634 38.4167 12.333 38.8958C13.208 39.0208 14.208 39.0625 15.6247 39.0625H22.958C23.8122 39.0625 24.5205 39.7708 24.5205 40.625C24.5205 41.4792 23.8122 42.1875 22.958 42.1875Z" fill="#7E54F8"/>
<path d="M34.3743 42.1875H31.291C30.4368 42.1875 29.7285 41.4792 29.7285 40.625C29.7285 39.7708 30.4368 39.0625 31.291 39.0625H34.3743C35.791 39.0625 36.791 39 37.6035 38.8958C41.8327 38.4375 43.2285 37.1042 43.2285 30.2083V19.7917C43.2285 12.8958 41.8327 11.5833 37.666 11.1042C36.791 10.9792 35.791 10.9375 34.3743 10.9375H31.291C30.4368 10.9375 29.7285 10.2292 29.7285 9.375C29.7285 8.52083 30.4368 7.8125 31.291 7.8125H34.3743C35.9368 7.8125 37.0827 7.875 38.0618 8.02083C44.9993 8.79167 46.3535 12.9167 46.3535 19.7917V30.2083C46.3535 37.0833 44.9785 41.2292 37.9993 42C37.0827 42.125 35.9368 42.1875 34.3743 42.1875Z" fill="#7E54F8"/>
<path d="M31.25 47.3958C30.3958 47.3958 29.6875 46.6875 29.6875 45.8333V4.16663C29.6875 3.31246 30.3958 2.60413 31.25 2.60413C32.1042 2.60413 32.8125 3.31246 32.8125 4.16663V45.8333C32.8125 46.6875 32.1042 47.3958 31.25 47.3958Z" fill="#7E54F8"/>
<path d="M16.667 33.8541C15.8128 33.8541 15.1045 33.1458 15.1045 32.2916V17.7083C15.1045 16.8541 15.8128 16.1458 16.667 16.1458C17.5212 16.1458 18.2295 16.8541 18.2295 17.7083V32.2916C18.2295 33.1458 17.5212 33.8541 16.667 33.8541Z" fill="#7E54F8"/>
</svg>
