<svg width="50" height="50" viewBox="0 0 50 50" fill="none" xmlns="http://www.w3.org/2000/svg">
<path d="M31.751 47.3959H18.251C14.3135 47.3959 11.4385 45.7501 10.3343 42.9168C9.18851 39.9584 10.251 36.2917 13.001 33.8126L22.6677 25.0001L13.001 16.1876C10.251 13.7084 9.18851 10.0417 10.3343 7.08342C11.4385 4.22925 14.3135 2.60425 18.251 2.60425H31.751C35.6885 2.60425 38.5635 4.25008 39.6677 7.08342C40.8135 10.0417 39.751 13.7084 37.001 16.1876L27.3343 25.0001L37.0219 33.8126C39.751 36.2917 40.8343 39.9584 39.6885 42.9168C38.5635 45.7501 35.6885 47.3959 31.751 47.3959ZM25.001 27.1042L15.1052 36.1043C13.3552 37.7084 12.5843 40.0417 13.251 41.7709C13.876 43.3751 15.6468 44.2709 18.251 44.2709H31.751C34.3552 44.2709 36.126 43.3959 36.751 41.7709C37.4177 40.0417 36.6677 37.7084 34.8968 36.1043L25.001 27.1042ZM18.251 5.72925C15.6468 5.72925 13.876 6.60425 13.251 8.22925C12.5843 9.95842 13.3343 12.2917 15.1052 13.8959L25.001 22.8959L34.8968 13.8959C36.6468 12.2917 37.4177 9.95842 36.751 8.22925C36.126 6.62508 34.3552 5.72925 31.751 5.72925H18.251Z" fill="#7E54F8"/>
</svg>
