<svg width="14" height="14" viewBox="0 0 14 14" fill="none" xmlns="http://www.w3.org/2000/svg">
  <path fill-rule="evenodd" clip-rule="evenodd" d="M4.375 3.0625C4.375 2.096 5.1585 1.3125 6.125 1.3125H7.875C8.8415 1.3125 9.625 2.096 9.625 3.0625V3.18207C10.1689 3.23186 10.7085 3.29698 11.2432 3.37698C12.0914 3.5039 12.6875 4.24179 12.6875 5.07832V6.84769C12.6875 7.55419 12.2595 8.2199 11.558 8.45313C10.1247 8.92967 8.59202 9.1875 7.00002 9.1875C5.40801 9.1875 3.87533 8.92966 2.44199 8.45312C1.74046 8.21988 1.3125 7.55417 1.3125 6.84767V5.07832C1.3125 4.24179 1.90861 3.5039 2.75681 3.37699C3.29152 3.29698 3.83106 3.23186 4.375 3.18207V3.0625ZM8.75 3.0625V3.11548C8.17113 3.08033 7.58763 3.0625 7 3.0625C6.41238 3.0625 5.82887 3.08033 5.25 3.11548V3.0625C5.25 2.57925 5.64175 2.1875 6.125 2.1875H7.875C8.35825 2.1875 8.75 2.57925 8.75 3.0625ZM7 7.875C7.24162 7.875 7.4375 7.67913 7.4375 7.4375C7.4375 7.19588 7.24162 7 7 7C6.75838 7 6.5625 7.19588 6.5625 7.4375C6.5625 7.67913 6.75838 7.875 7 7.875Z" fill="#333333"/>
  <path d="M1.75 10.7333V9.10229C1.88011 9.17365 2.0189 9.23455 2.16594 9.28343C3.68717 9.7892 5.313 10.0625 7.00002 10.0625C8.68702 10.0625 10.3128 9.7892 11.8341 9.28345C11.9811 9.23456 12.1199 9.17366 12.25 9.10231V10.7333C12.25 11.5803 11.6391 12.3244 10.7782 12.4387C9.5419 12.6028 8.28073 12.6875 7 12.6875C5.71927 12.6875 4.4581 12.6028 3.22183 12.4387C2.36089 12.3244 1.75 11.5803 1.75 10.7333Z" fill="#333333"/>
</svg>
