<svg width="14" height="14" viewBox="0 0 14 14" fill="none" xmlns="http://www.w3.org/2000/svg">
  <path d="M7 4.375C6.27513 4.375 5.6875 4.96263 5.6875 5.6875C5.6875 6.41237 6.27513 7 7 7C7.72487 7 8.3125 6.41237 8.3125 5.6875C8.3125 4.96263 7.72487 4.375 7 4.375Z" fill="#333333"/>
  <path fill-rule="evenodd" clip-rule="evenodd" d="M0.875 2.84375C0.875 2.23969 1.36469 1.75 1.96875 1.75H12.0312C12.6353 1.75 13.125 2.23969 13.125 2.84375V8.53125C13.125 9.13531 12.6353 9.625 12.0312 9.625H1.96875C1.36469 9.625 0.875 9.13531 0.875 8.53125V2.84375ZM4.8125 5.6875C4.8125 4.47938 5.79188 3.5 7 3.5C8.20812 3.5 9.1875 4.47938 9.1875 5.6875C9.1875 6.89562 8.20812 7.875 7 7.875C5.79188 7.875 4.8125 6.89562 4.8125 5.6875ZM10.9375 5.25C10.6959 5.25 10.5 5.44588 10.5 5.6875V5.69187C10.5 5.9335 10.6959 6.12937 10.9375 6.12937H10.9419C11.1835 6.12937 11.3794 5.9335 11.3794 5.69187V5.6875C11.3794 5.44588 11.1835 5.25 10.9419 5.25H10.9375ZM2.625 5.6875C2.625 5.44588 2.82088 5.25 3.0625 5.25H3.06687C3.3085 5.25 3.50437 5.44588 3.50437 5.6875V5.69187C3.50437 5.9335 3.3085 6.12937 3.06687 6.12937H3.0625C2.82088 6.12937 2.625 5.9335 2.625 5.69187V5.6875Z" fill="#333333"/>
  <path d="M1.3125 10.5C1.07088 10.5 0.875 10.6959 0.875 10.9375C0.875 11.1791 1.07088 11.375 1.3125 11.375C4.46253 11.375 7.51347 11.7963 10.4124 12.5854C11.1069 12.7744 11.8125 12.2598 11.8125 11.5238V10.9375C11.8125 10.6959 11.6166 10.5 11.375 10.5H1.3125Z" fill="#333333"/>
</svg>
