<svg xmlns="http://www.w3.org/2000/svg" width="20" height="20" fill="currentColor" viewBox="0 0 20 20">
  <path
    fill="currentColor"
    fill-rule="evenodd"
    d="M3.72 12.887a4.167 4.167 0 0 1 2.947-1.22h6.666a4.167 4.167 0 0 1 4.167 4.166V17.5a.833.833 0 0 1-1.667 0v-1.667a2.5 2.5 0 0 0-2.5-2.5H6.667a2.5 2.5 0 0 0-2.5 2.5V17.5a.833.833 0 0 1-1.667 0v-1.667c0-1.105.439-2.165 1.22-2.946zM10 3.333a2.5 2.5 0 1 0 0 5 2.5 2.5 0 0 0 0-5zm-4.167 2.5a4.167 4.167 0 1 1 8.334 0 4.167 4.167 0 0 1-8.334 0z"
    clip-rule="evenodd"
  />
</svg>