<svg width="70" height="70" viewBox="0 0 70 70" fill="none" xmlns="http://www.w3.org/2000/svg">
<path d="M31.3539 7.1453C33.3664 5.42447 36.6622 5.42447 38.7039 7.1453L43.3123 11.1123C44.1873 11.8706 45.8205 12.483 46.9872 12.483H51.9456C55.0372 12.483 57.5747 15.0203 57.5747 18.112V23.0705C57.5747 24.208 58.1872 25.8706 58.9455 26.7456L62.9123 31.3538C64.6331 33.3663 64.6331 36.6622 62.9123 38.7038L58.9455 43.312C58.1872 44.187 57.5747 45.8204 57.5747 46.9871V51.9456C57.5747 55.0373 55.0372 57.5746 51.9456 57.5746H46.9872C45.8497 57.5746 44.1873 58.187 43.3123 58.9453L38.7039 62.912C36.6914 64.6328 33.3956 64.6328 31.3539 62.912L26.7456 58.9453C25.8706 58.187 24.2372 57.5746 23.0706 57.5746H18.0247C14.933 57.5746 12.3956 55.0373 12.3956 51.9456V46.9579C12.3956 45.8204 11.7831 44.187 11.0539 43.312L7.11641 38.6746C5.42474 36.6621 5.42474 33.3955 7.11641 31.383L11.0539 26.7456C11.7831 25.8706 12.3956 24.2372 12.3956 23.0997V18.112C12.3956 15.0203 14.933 12.483 18.0247 12.483H23.0706C24.2081 12.483 25.8706 11.8706 26.7456 11.1123L31.3539 7.1453Z" stroke="#141714" stroke-width="3" stroke-linecap="round" stroke-linejoin="round"/>
<path d="M28.8462 43.2249L33.0753 46.4916C33.6295 47.0457 34.8546 47.3083 35.6712 47.3083H40.8337C42.467 47.3083 44.2462 46.0834 44.6545 44.45L47.9212 34.4749C48.592 32.5791 47.367 30.9167 45.3254 30.9167H39.8712C39.0546 30.9167 38.3837 30.246 38.5004 29.2835L39.1712 24.9085C39.4337 23.6835 38.617 22.3126 37.392 21.9043C36.3129 21.4959 34.942 22.05 34.3879 22.8666L28.7878 31.1791" stroke="#141714" stroke-width="3" stroke-miterlimit="10"/>
<path d="M21.875 43.2251V29.8669C21.875 27.9419 22.6917 27.2711 24.6167 27.2711H25.9875C27.8833 27.2711 28.7292 27.9419 28.7292 29.8669V43.2251C28.7292 45.121 27.9125 45.821 25.9875 45.821H24.6167C22.6917 45.821 21.875 45.1501 21.875 43.2251Z" stroke="#141714" stroke-width="3" stroke-linecap="round" stroke-linejoin="round"/>
</svg>
