<svg width="70" height="70" viewBox="0 0 70 70" fill="none" xmlns="http://www.w3.org/2000/svg">
<path d="M26.0741 49.3796L17.8199 41.1252C15.0783 38.3836 15.0783 35.6129 17.8199 32.8712V32.8712C25.423 25.268 37.7502 25.268 45.3533 32.8712L46.7241 34.2419C47.4824 35.0003 47.4824 36.2255 46.7241 36.9838L34.3283 49.3796C31.5866 52.1213 28.8158 52.1213 26.0741 49.3796Z" stroke="#141714" stroke-width="3" stroke-miterlimit="10" stroke-linecap="round" stroke-linejoin="round"/>
<path d="M28.816 16.3337L31.5868 19.0754" stroke="#141714" stroke-width="3" stroke-miterlimit="10" stroke-linecap="round" stroke-linejoin="round"/>
<path d="M15.8662 36.8672L47.0454 35.4965" stroke="#141714" stroke-width="3" stroke-miterlimit="10" stroke-linecap="round" stroke-linejoin="round"/>
<path d="M54.2781 49.875C54.2298 45.6706 46.6365 45.6703 46.6365 49.875V49.875C46.6365 51.975 48.3573 53.696 50.4573 53.696C52.5573 53.696 54.2781 51.975 54.2781 49.875V49.875Z" stroke="#141714" stroke-width="3" stroke-linecap="round" stroke-linejoin="round"/>
<path d="M64.1667 43.75V26.25C64.1667 11.6666 58.3334 5.83331 43.75 5.83331H26.25C11.6667 5.83331 5.83337 11.6666 5.83337 26.25V43.75C5.83337 58.3333 11.6667 64.1666 26.25 64.1666H43.75C58.3334 64.1666 64.1667 58.3333 64.1667 43.75Z" stroke="#141714" stroke-width="3" stroke-linecap="round" stroke-linejoin="round"/>
</svg>
