<svg width="70" height="70" viewBox="0 0 70 70" fill="none" xmlns="http://www.w3.org/2000/svg">
<path d="M44.8859 15.195L48.9983 23.4199C49.5525 24.5574 51.04 25.6366 52.2942 25.8699L59.7317 27.0949C64.4859 27.8824 65.5942 31.3241 62.1817 34.7658L56.3775 40.5699C55.415 41.5324 54.8609 43.4283 55.1818 44.7991L56.8442 51.9741C58.1567 57.6325 55.1234 59.8491 50.1359 56.8741L43.165 52.7324C41.9108 51.9741 39.8109 51.9741 38.5567 52.7324L31.5858 56.8741C26.5983 59.8199 23.5651 57.6325 24.8776 51.9741L26.5401 44.7991C26.8609 43.4574 26.3067 41.5616 25.3442 40.5699L19.5401 34.7658C16.1276 31.3533 17.2359 27.9116 21.9901 27.0949L29.4275 25.8699C30.6817 25.6658 32.1692 24.5574 32.7234 23.4199L36.8359 15.195C39.0234 10.7325 42.6401 10.7325 44.8859 15.195Z" stroke="#141714" stroke-width="3" stroke-linecap="round" stroke-linejoin="round"/>
<path d="M23.3325 14.5825H5.83252" stroke="#141714" stroke-width="3" stroke-linecap="round" stroke-linejoin="round"/>
<path d="M14.5825 55.4175H5.83252" stroke="#141714" stroke-width="3" stroke-linecap="round" stroke-linejoin="round"/>
<path d="M8.74919 35H5.83252" stroke="#141714" stroke-width="3" stroke-linecap="round" stroke-linejoin="round"/>
</svg>
