<svg width="3001" height="804" viewBox="0 0 3001 804" fill="none" xmlns="http://www.w3.org/2000/svg">
<path d="M405.227 195.257L810.892 428.845V233.929L404.967 0.0810547L0.0810547 234.188V429.364L405.227 195.257Z" fill="#7E54F8"/>
<path d="M746.006 663.731L810.892 625.578V505.929L404.967 271.822L0.0810547 505.929V626.098L64.9667 663.731L404.967 466.998L746.006 663.731Z" fill="#7E54F8"/>
<path d="M405.227 743.67L508.265 803.106L677.487 705.777L404.967 548.494L133.486 705.777L302.708 803.106L405.227 743.67Z" fill="#7E54F8"/>
<path d="M1215.56 241.477C1218.28 254.157 1219.64 266.837 1219.64 279.517C1219.64 292.198 1218.28 304.651 1215.56 316.879L1134.73 315.52V471.759C1134.73 493.043 1144.69 503.686 1164.62 503.686H1202.66C1208.54 519.989 1211.49 534.934 1211.49 548.52C1211.49 562.105 1210.58 571.842 1208.77 577.729C1175.26 582.258 1144.46 584.522 1116.39 584.522C1059.33 584.522 1030.79 553.048 1030.79 490.1V316.199L977.809 316.879C974.639 305.557 973.054 293.216 973.054 279.857C973.054 266.497 974.639 253.704 977.809 241.477L1030.79 242.835V203.436C1030.79 180.34 1035.21 163.923 1044.04 154.187C1052.87 144.45 1067.7 139.582 1088.53 139.582H1129.97L1134.73 144.337V242.835L1215.56 241.477ZM1531.44 445.945H1354.14C1355.05 466.324 1360.25 482.175 1369.76 493.496C1379.27 504.818 1394.9 510.479 1416.64 510.479C1427.5 510.479 1440.07 508.894 1454.34 505.724C1468.6 502.554 1485.02 497.346 1503.59 490.1C1518.53 505.497 1527.81 526.329 1531.44 552.595C1495.21 578.409 1450.83 591.315 1398.3 591.315C1369.76 591.315 1345.88 586.787 1326.63 577.729C1307.38 568.672 1291.76 555.992 1279.76 539.689C1267.76 523.385 1259.27 504.139 1254.28 481.948C1249.3 459.758 1246.81 435.53 1246.81 409.263C1246.81 383.903 1249.87 360.467 1255.98 338.956C1262.1 317.445 1271.38 298.764 1283.83 282.914C1296.29 267.063 1312.14 254.61 1331.38 245.552C1350.63 236.495 1373.16 231.966 1398.97 231.966C1420.71 231.966 1440.3 235.589 1457.73 242.835C1475.17 250.081 1490 260.044 1502.23 272.724C1514.46 285.405 1523.85 300.576 1530.42 318.237C1536.99 335.899 1540.27 355.146 1540.27 375.978C1540.27 403.602 1537.32 426.925 1531.44 445.945ZM1353.46 372.581H1443.13V365.109C1443.13 348.353 1439.39 334.54 1431.92 323.672C1424.45 312.803 1413.24 307.369 1398.3 307.369C1383.8 307.369 1373.05 312.463 1366.03 322.653C1359.01 332.842 1354.82 349.485 1353.46 372.581ZM1892.82 532.216C1890.56 541.726 1886.26 551.916 1879.92 562.785C1873.58 573.654 1867.01 581.579 1860.22 586.56C1828.52 585.654 1804.06 573.654 1786.85 550.557C1757.42 577.729 1725.49 591.315 1691.07 591.315C1673.41 591.315 1658.01 588.485 1644.88 582.824C1631.75 577.163 1620.65 569.578 1611.59 560.068C1602.54 550.557 1595.74 539.575 1591.22 527.122C1586.69 514.668 1584.42 501.648 1584.42 488.062C1584.42 468.589 1587.93 451.493 1594.95 436.775C1601.97 422.057 1611.59 409.829 1623.82 400.093C1636.05 390.356 1650.31 382.997 1666.62 378.016C1682.92 373.034 1700.36 370.543 1718.92 370.543C1729.34 370.543 1738.51 370.657 1746.44 370.883C1754.36 371.109 1761.27 371.449 1767.15 371.902V358.995C1767.15 330.465 1752.44 316.199 1723 316.199C1703.98 316.199 1670.69 323.445 1623.14 337.937C1609.56 322.087 1600.95 297.405 1597.33 263.893C1608.2 259.818 1620.31 255.968 1633.67 252.345C1647.03 248.722 1660.73 245.552 1674.77 242.835C1688.81 240.118 1702.62 237.967 1716.21 236.382C1729.79 234.797 1742.02 234.004 1752.89 234.004C1768.74 234.004 1784.02 236.269 1798.74 240.797C1813.46 245.326 1826.37 252.232 1837.46 261.516C1848.56 270.8 1857.39 282.801 1863.95 297.519C1870.52 312.237 1873.8 329.785 1873.8 350.164V488.062C1873.8 508.894 1880.14 523.612 1892.82 532.216ZM1687.68 481.269C1687.68 502.554 1699.9 513.196 1724.36 513.196C1737.04 513.196 1751.3 506.629 1767.15 493.496V439.152C1758.1 438.7 1750.51 438.36 1744.4 438.134C1738.28 437.907 1733.64 437.794 1730.47 437.794C1701.94 437.794 1687.68 452.286 1687.68 481.269ZM2134.65 376.657C2134.65 346.315 2124.47 331.144 2104.09 331.144C2096.84 331.144 2089.48 333.295 2082.01 337.597C2074.54 341.9 2066.95 347.447 2059.25 354.24V581.126C2051.55 582.484 2043.18 583.503 2034.12 584.183C2025.06 584.862 2015.78 585.202 2006.27 585.202C1996.76 585.202 1987.47 584.862 1978.42 584.183C1969.36 583.503 1960.98 582.484 1953.28 581.126V242.156L1958.04 237.401H1997.44C2026.42 237.401 2045.44 251.666 2054.5 280.197C2086.65 250.76 2117.9 236.042 2148.24 236.042C2184.92 236.042 2211.42 251.666 2227.72 282.914C2263.04 251.666 2296.55 236.042 2328.25 236.042C2359.96 236.042 2383.62 245.892 2399.24 265.592C2414.87 285.291 2422.68 311.444 2422.68 344.051V496.214C2422.68 525.65 2428.34 548.067 2439.66 563.464C2422.45 578.861 2401.85 586.56 2377.84 586.56C2354.29 586.56 2338.22 581.126 2329.61 570.257C2321.01 559.388 2316.71 542.859 2316.71 520.668V375.978C2316.71 346.089 2306.06 331.144 2284.78 331.144C2271.65 331.144 2257.15 339.069 2241.3 354.919V581.126C2233.61 582.484 2225.23 583.503 2216.17 584.183C2207.11 584.862 2197.83 585.202 2188.32 585.202C2178.81 585.202 2169.41 584.862 2160.13 584.183C2150.84 583.503 2142.35 582.484 2134.65 581.126V376.657ZM2634.62 503.686H2652.96C2658.39 518.63 2661.11 533.575 2661.11 548.52C2661.11 563.464 2660.43 573.201 2659.07 577.729C2631.9 582.258 2607.67 584.522 2586.39 584.522C2555.59 584.522 2533.74 576.937 2520.84 561.766C2507.93 546.595 2501.48 522.706 2501.48 490.1V85.9172L2505.55 81.1621H2546.99C2568.27 81.1621 2583.22 85.9172 2591.82 95.4274C2600.43 104.938 2604.73 121.467 2604.73 145.016V471.759C2604.73 493.043 2614.69 503.686 2634.62 503.686ZM3000.08 253.025L2916.53 572.295C2903.39 621.204 2885.96 658.792 2864.22 685.058C2839.31 714.948 2801.05 729.892 2749.42 729.892C2721.8 729.892 2694.4 725.364 2667.22 716.306C2665.87 704.079 2667.22 690.38 2671.3 675.209C2675.38 660.038 2681.04 648.376 2688.28 640.225C2708.66 647.018 2729.04 650.414 2749.42 650.414C2782.93 650.414 2805.12 632.073 2815.99 595.391L2818.71 585.881C2779.31 585.881 2755.76 571.616 2748.06 543.085L2669.26 250.307C2690.09 240.797 2709.57 236.042 2727.68 236.042C2745.8 236.042 2759.04 239.439 2767.42 246.232C2775.8 253.025 2782.03 264.799 2786.1 281.555L2817.35 411.98C2820.52 424.208 2825.73 454.097 2832.97 501.648C2833.43 504.818 2835.24 506.403 2838.41 506.403L2897.51 242.835C2908.38 239.665 2923.09 238.08 2941.66 238.08C2962.49 238.08 2980.61 240.571 2996.01 245.552L3000.08 253.025Z" fill="#7E54F8"/>
</svg>
