<svg width="3001" height="811" viewBox="0 0 3001 811" fill="none" xmlns="http://www.w3.org/2000/svg">
<path d="M341.8 348.838C318.89 370.595 284.358 368.55 262.619 345.559C241.989 323.856 241.764 289.216 264.674 267.513C286.502 246.892 322.115 247.802 342.791 269.576C364.557 292.496 363.548 328.162 341.8 348.838ZM539.53 557.271C516.647 578.974 482.062 576.92 461.332 555.172C439.674 532.235 440.593 498.884 463.485 477.073C485.233 456.442 519.819 456.244 541.521 479.127C562.206 500.929 561.287 536.587 539.53 557.271Z" fill="#7E54F8"/>
<path d="M453.323 457.613C426.079 483.478 384.872 480.965 360.394 455.154C334.484 427.919 334.376 386.757 361.575 360.946C387.44 336.37 429.917 337.496 455.683 364.748C480.269 390.658 479.134 433.046 453.323 457.613Z" fill="#7E54F8"/>
<path d="M248.845 443.505C231.709 459.73 203.799 457.983 187.502 440.793C171.205 423.55 171.952 396.811 189.169 380.541C206.331 364.226 234.196 363.82 250.484 381.009C266.809 398.19 266.061 427.19 248.845 443.505Z" fill="#7E54F8"/>
<path d="M421.512 625.56C404.377 641.884 377.593 641.155 361.322 624.019C344.98 606.839 344.62 578.866 361.836 562.605C378.971 546.244 408.016 547.109 424.287 564.253C440.593 581.434 438.701 609.299 421.512 625.56Z" fill="#7E54F8"/>
<path d="M207.34 91.0533C199.773 83.0983 200.106 69.7019 209.259 60.9811C217.268 53.3865 230.656 53.6928 238.304 61.7018C247.007 70.9361 246.674 84.2244 238.593 91.8731C229.476 100.594 216.088 100.234 207.34 91.0533Z" fill="#7E54F8"/>
<path d="M59.3755 229.748C51.7809 221.738 52.1683 208.45 60.1683 200.801C69.3755 192.072 82.6909 192.441 90.3396 200.396C99.0063 209.585 98.6729 222.973 89.4927 231.693C81.4657 239.288 68.0782 238.991 59.3755 229.748Z" fill="#7E54F8"/>
<path d="M8.76278 159.702C2.55555 153.189 2.86186 142.315 9.34837 136.108C16.8439 128.972 27.7448 129.225 33.9341 135.846C41.0422 143.288 40.7269 154.117 33.2404 161.198C26.7448 167.405 15.8439 167.198 8.76278 159.702Z" fill="#7E54F8"/>
<path d="M142.835 28.9629C136.601 22.3954 136.907 11.5665 143.448 5.3052C150.889 -1.77591 161.79 -1.46059 167.997 5.05295C175.079 12.5485 174.772 23.4224 167.304 30.5035C160.799 36.7107 149.898 36.4585 142.835 28.9629Z" fill="#7E54F8"/>
<path d="M41.9072 55.9991C34.2856 47.945 34.6729 34.5485 42.6279 26.9089C50.637 19.3683 64.0785 19.7287 71.7452 27.7827C80.3398 36.8639 79.9884 50.3053 71.9794 57.9C63.9704 65.4946 50.5829 65.0892 41.9072 55.9991Z" fill="#7E54F8"/>
<path d="M276.07 170.783C263.016 157.081 264.755 135.945 277.385 123.99C291.106 110.963 311.151 111.468 324.178 125.18C336.133 137.846 335.593 157.909 321.926 170.891C309.268 182.946 288.052 183.459 276.07 170.783Z" fill="#7E54F8"/>
<path d="M119.177 319.595C106.168 305.892 106.709 285.775 120.412 272.793C133.033 260.901 154.223 260.279 167.259 274.027C179.187 286.658 177.574 307.847 164.952 319.748C151.205 332.775 131.141 332.261 119.177 319.595Z" fill="#7E54F8"/>
<path d="M102.196 142.513C90.2408 129.9 91.9345 108.702 104.475 96.747C118.232 83.7199 138.313 84.2785 150.25 96.9092C163.34 110.612 162.827 130.72 149.043 143.747C136.448 155.702 115.259 156.27 102.196 142.513Z" fill="#7E54F8"/>
<path d="M181.07 239.441C164.854 222.306 166.673 194.486 183.818 178.117C201.088 161.801 227.872 162.567 244.106 179.765C260.421 196.9 260.827 224.82 243.593 241.135C226.394 257.45 197.412 256.639 181.07 239.441Z" fill="#7E54F8"/>
<path d="M716.964 609.037C724.81 616.839 738.198 616.731 747.027 607.758C754.829 599.902 754.72 586.515 746.874 578.758C737.837 569.884 724.549 569.938 716.747 577.83C707.927 586.767 707.927 600.109 716.964 609.037Z" fill="#7E54F8"/>
<path d="M575.134 754.092C583.044 761.84 596.378 761.786 604.189 753.939C613.107 744.903 613.008 731.569 605.207 723.758C596.179 714.939 582.738 715.038 573.9 723.966C566.107 731.83 566.215 745.218 575.134 754.092Z" fill="#7E54F8"/>
<path d="M644.153 806.182C650.567 812.488 661.441 812.434 667.811 806.074C675.099 798.786 674.991 787.867 668.576 781.542C661.243 774.308 650.369 774.308 643.072 781.651C636.811 788.065 636.811 798.948 644.153 806.182Z" fill="#7E54F8"/>
<path d="M777.658 674.92C784.072 681.182 795.009 681.182 801.316 674.722C808.604 667.425 808.505 656.506 802.135 650.191C794.802 642.902 783.874 643.001 776.64 650.389C770.324 656.758 770.324 667.686 777.658 674.92Z" fill="#7E54F8"/>
<path d="M748.468 775.236C756.423 782.93 769.811 782.885 777.604 775.038C785.352 767.236 785.297 753.741 777.405 745.993C768.478 737.164 755.036 737.209 747.234 745.065C739.486 752.912 739.649 766.362 748.468 775.236Z" fill="#7E54F8"/>
<path d="M638.666 538.686C652.054 552.028 673.252 550.749 685.459 538.433C698.793 524.992 698.693 504.929 685.252 491.64C672.838 479.379 652.783 479.478 639.486 492.929C627.27 505.289 626.243 526.533 638.666 538.686Z" fill="#7E54F8"/>
<path d="M486.575 692.47C500.017 705.803 520.08 705.659 533.477 692.209C545.639 679.794 546.612 658.704 533.17 645.371C520.747 633.163 499.603 634.29 487.395 646.695C474.161 660.191 474.26 680.263 486.575 692.47Z" fill="#7E54F8"/>
<path d="M663.342 713.101C675.657 725.362 696.901 724.083 709.063 711.776C722.45 698.227 722.297 678.209 709.937 666.001C696.495 652.713 676.369 652.758 663.09 666.254C650.819 678.56 649.846 699.858 663.342 713.101Z" fill="#7E54F8"/>
<path d="M567.954 632.181C584.783 648.857 612.702 647.569 629.423 630.74C646.053 613.911 645.837 587.127 629.008 570.461C612.179 553.776 584.269 552.803 567.639 569.686C550.918 586.569 551.125 615.551 567.954 632.181Z" fill="#7E54F8"/>
<path d="M436.899 262.477C453.836 245.901 453.116 217.946 436.593 201.063C419.971 184.126 393.242 183.828 376.304 200.405C359.349 216.928 357.908 244.784 374.458 261.721C391.034 278.649 420.07 279 436.899 262.477Z" fill="#7E54F8"/>
<path d="M612.287 441.974C629.224 425.451 629.576 398.622 613.107 381.721C596.486 364.739 568.576 363.352 551.639 379.874C534.711 396.397 534.404 425.451 550.927 442.379C567.44 459.316 595.35 458.55 612.287 441.974Z" fill="#7E54F8"/>
<path d="M462.152 341.757C440.449 318.82 442.44 284.243 465.431 262.586C487.188 241.964 521.774 241.757 543.531 264.649C564.053 286.396 563.134 322.117 541.377 342.685C518.494 364.433 482.882 363.46 462.152 341.757ZM253.728 539.406C232.043 516.523 234.097 481.938 255.854 461.361C278.737 439.613 312.214 440.478 333.899 463.37C354.548 485.127 354.755 519.758 331.872 541.461C310.061 562.145 274.394 561.217 253.728 539.406Z" fill="#7E54F8"/>
<path d="M719.937 207.27C727.946 199.675 741.387 200.081 750.009 209.162C757.603 217.225 757.189 230.567 749.288 238.162C740.099 246.946 726.711 246.576 719.117 238.522C710.387 229.378 710.801 215.991 719.937 207.27Z" fill="#7E54F8"/>
<path d="M581.197 59.3865C589.197 51.7919 602.648 52.0982 610.242 60.1072C618.963 69.2965 618.558 82.5758 610.549 90.2875C601.413 99.0083 587.972 98.5939 579.296 89.4587C571.702 81.3416 572.062 68.0622 581.197 59.3865Z" fill="#7E54F8"/>
<path d="M651.287 8.69261C657.801 2.48538 668.729 2.79169 674.936 9.30523C682.017 16.8008 681.765 27.6296 675.143 33.8369C667.756 40.972 656.873 40.6117 649.747 33.1702C643.54 26.6026 643.846 15.7737 651.287 8.69261Z" fill="#7E54F8"/>
<path d="M782.026 142.72C788.594 136.558 799.477 136.828 805.684 143.333C812.711 150.828 812.459 161.756 805.936 167.918C798.441 174.991 787.567 174.693 780.486 167.252C774.324 160.729 774.54 149.801 782.026 142.72Z" fill="#7E54F8"/>
<path d="M755.036 41.8459C763.045 34.1972 776.432 34.5576 784.036 42.5666C791.684 50.5757 791.27 64.0172 783.261 71.6118C774.126 80.2335 760.684 79.9272 753.09 71.9181C745.54 63.9541 745.9 50.5126 755.036 41.8459Z" fill="#7E54F8"/>
<path d="M640.197 275.973C653.846 263 675.089 264.685 687.044 277.306C700.017 291.009 699.513 311.018 685.756 324.099C673.179 336.054 653.116 335.496 640.035 321.784C628.089 309.225 627.576 287.928 640.197 275.973Z" fill="#7E54F8"/>
<path d="M491.395 119.116C505.098 106.143 525.161 106.594 538.242 120.351C550.197 132.972 550.71 154.117 536.954 167.198C524.341 179.153 503.197 177.513 491.242 164.891C478.26 151.135 478.773 131.071 491.395 119.116Z" fill="#7E54F8"/>
<path d="M668.414 102.125C681.089 90.1254 702.288 91.8641 714.297 104.441C727.324 118.143 726.711 138.252 714.135 150.216C700.333 163.243 680.27 162.783 667.288 148.981C655.333 136.405 654.774 115.162 668.414 102.125Z" fill="#7E54F8"/>
<path d="M571.486 181.045C588.675 164.837 616.54 166.63 632.855 183.774C649.125 201.018 648.351 227.748 631.207 244.018C614.017 260.342 586.152 260.739 569.837 243.549C553.585 226.351 554.35 197.369 571.486 181.045Z" fill="#7E54F8"/>
<path d="M201.925 716.848C194.123 724.749 194.25 738.137 203.187 746.966C211.087 754.768 224.484 754.714 232.259 746.813C241.16 737.831 241.061 724.443 233.205 716.686C224.223 707.857 210.88 707.857 201.925 716.848Z" fill="#7E54F8"/>
<path d="M56.862 575.118C49.1682 582.974 49.1682 596.362 57.0602 604.118C66.0692 613.037 79.4026 612.938 87.2315 605.082C96.1054 596.109 95.9522 582.713 87.0513 573.785C79.1593 565.983 65.7719 566.145 56.862 575.118Z" fill="#7E54F8"/>
<path d="M4.78057 644.082C-1.52576 650.551 -1.48071 661.371 4.88868 667.731C12.2491 675.029 23.177 674.92 29.4654 668.506C36.7807 661.218 36.6726 650.299 29.3122 643.055C22.9248 636.749 12.0148 636.803 4.78057 644.082Z" fill="#7E54F8"/>
<path d="M136.115 777.651C129.799 784.065 129.826 794.894 136.241 801.254C143.556 808.489 154.457 808.444 160.79 802.074C167.998 794.687 167.998 783.813 160.61 776.633C154.232 770.254 143.349 770.254 136.115 777.651Z" fill="#7E54F8"/>
<path d="M35.7809 748.497C28.0602 756.353 28.0602 769.741 35.9611 777.587C43.781 785.281 57.2225 785.236 65.0243 777.335C73.7721 768.407 73.745 754.966 65.9522 747.164C58.0693 739.47 44.6548 739.578 35.7809 748.497Z" fill="#7E54F8"/>
<path d="M272.295 638.542C258.98 651.983 260.214 673.182 272.556 685.389C286.07 698.722 306.115 698.623 319.403 685.182C331.665 672.767 331.539 652.713 318.07 639.416C305.746 627.146 284.484 626.173 272.295 638.542Z" fill="#7E54F8"/>
<path d="M118.52 486.505C105.204 500.001 105.358 520.064 118.772 533.352C131.186 545.56 152.331 546.542 165.619 533.1C177.826 520.731 176.7 499.532 164.331 487.325C150.871 474.037 130.727 474.136 118.52 486.505Z" fill="#7E54F8"/>
<path d="M97.9161 663.218C85.6277 675.587 86.907 696.821 99.2314 709.038C112.7 722.335 132.763 722.227 145.006 709.921C158.367 696.317 158.268 676.308 144.772 662.965C132.421 650.803 111.177 649.776 97.9161 663.218Z" fill="#7E54F8"/>
<path d="M178.754 567.884C162.133 584.767 163.412 612.686 180.241 629.299C197.097 646.019 223.908 645.767 240.484 628.938C257.16 612.109 258.16 584.199 241.331 567.569C224.448 550.902 195.43 551.109 178.754 567.884Z" fill="#7E54F8"/>
<path d="M1116.63 521.402C1137.51 529.886 1153.83 524.012 1163.62 519.444V571.653C1155.13 576.874 1142.73 581.442 1125.11 581.442C1086.61 581.442 1052.67 569.043 1031.79 535.107C1012.21 502.476 1012.21 484.855 1012.21 433.951V307.343H973.054V252.524H1012.21V150.715H1079.43V252.524H1163.62V307.343H1079.43V433.951C1079.43 487.466 1084.65 507.044 1116.63 521.402ZM1546.05 414.372V438.519H1292.18C1292.18 497.907 1348.96 526.623 1390.73 526.623C1421.4 526.623 1455.34 510.307 1473.61 484.202L1519.95 525.97C1498.41 555.338 1463.17 581.442 1390.73 581.442C1286.31 581.442 1222.35 510.307 1222.35 414.372C1222.35 318.438 1284.35 246.65 1384.2 246.65C1484.05 246.65 1529.74 302.122 1543.44 383.047C1545.4 393.489 1546.05 403.931 1546.05 414.372ZM1293.49 383.047H1475.57C1475.57 330.838 1433.8 302.122 1384.2 302.122C1334.6 302.122 1293.49 335.406 1293.49 383.047ZM1749.02 245.997C1841.69 245.997 1878.89 302.122 1878.89 349.763V574.916H1811.67V539.675C1788.17 571.653 1746.4 580.79 1720.3 580.79C1646.55 580.79 1598.26 537.717 1598.26 480.287C1598.26 400.015 1658.3 371.3 1720.3 371.3H1811.67V349.763C1811.67 329.532 1803.83 301.47 1749.02 301.47C1718.34 301.47 1690.28 317.785 1672.01 343.237L1625.67 301.47C1656.34 267.534 1700.07 245.997 1749.02 245.997ZM1811.67 474.413V426.12H1729.44C1689.63 426.12 1661.56 446.351 1666.13 482.897C1670.05 513.57 1694.85 525.97 1729.44 525.97C1791.44 525.97 1811.67 496.602 1811.67 474.413ZM2249.57 388.92V574.916H2181.7L2182.35 572.306V395.447C2182.35 330.185 2165.38 301.47 2109.91 301.47C2047.26 301.47 2025.07 345.195 2025.07 401.973V574.916H1957.85V252.524H2025.07V304.733C2034.21 276.018 2071.41 249.913 2109.91 247.303C2173.22 242.734 2218.25 263.618 2238.48 315.827C2252.18 271.449 2295.91 249.913 2333.76 247.303C2421.21 240.776 2473.42 283.197 2473.42 388.92V574.916H2406.2V395.447C2406.2 330.185 2389.23 301.47 2333.76 301.47C2277.63 301.47 2254.14 336.711 2249.57 388.92ZM2622.22 73.054V574.916H2554.34V73.054H2622.22ZM3000.08 252.524C3000.08 252.524 2918.5 445.698 2864.34 574.916C2818.65 683.25 2782.76 748.512 2722.07 748.512C2703.14 748.512 2678.99 739.375 2661.37 728.934L2681.6 670.198C2686.83 674.766 2698.57 681.293 2706.4 683.25C2756.66 697.608 2787.98 592.537 2809.52 540.98L2687.48 252.524H2755.35L2844.11 463.971L2932.21 252.524H3000.08Z" fill="#041635"/>
</svg>
