<svg width="2747" height="600" viewBox="0 0 2747 600" fill="none" xmlns="http://www.w3.org/2000/svg">
<path d="M299.889 145.831L600.081 320.362V174.725L299.697 0L0.0810547 174.919V320.75L299.889 145.831Z" fill="url(#paint0_linear_1_3)"/>
<path d="M552.066 495.863L600.081 467.356V377.957L299.697 203.038L0.0810547 377.957V467.744L48.0964 495.863L299.697 348.869L552.066 495.863Z" fill="url(#paint1_linear_1_3)"/>
<path d="M299.889 555.591L376.137 600L501.362 527.279L299.697 409.761L98.8007 527.279L224.025 600L299.889 555.591Z" fill="url(#paint2_linear_1_3)"/>
<path d="M877.389 235.453V413.927H815.794V235.453H719V185.812H974.344V235.453H877.389ZM1279.94 402.638C1261.23 408.836 1242.56 413.291 1223.91 416.003C1205.26 418.715 1186.19 420.071 1166.71 420.071C1141.81 420.071 1119.64 417.386 1100.22 412.018C1080.79 406.65 1064.44 398.875 1051.16 388.692C1037.88 378.51 1027.75 366.058 1020.78 351.337C1013.8 336.616 1010.32 319.959 1010.32 301.364C1010.32 284.098 1013.83 268.077 1020.86 253.301C1027.89 238.524 1037.85 225.686 1050.74 214.783C1063.64 203.879 1079.22 195.358 1097.48 189.215C1115.74 183.073 1136.11 180.001 1158.57 180.001C1179.27 180.001 1198.23 182.795 1215.44 188.385C1232.65 193.974 1247.43 202.248 1259.77 213.205C1272.11 224.162 1281.68 237.665 1288.49 253.715C1295.3 269.764 1298.7 288.248 1298.7 309.166V324.441H1073.91C1075.9 331.635 1079.19 338.221 1083.78 344.197C1088.38 350.174 1094.6 355.266 1102.46 359.472C1110.32 363.678 1119.98 366.943 1131.43 369.267C1142.89 371.591 1156.59 372.753 1172.52 372.753C1183.81 372.753 1194.88 372.061 1205.73 370.678C1216.58 369.295 1226.7 367.468 1236.11 365.199C1245.52 362.93 1254.01 360.412 1261.6 357.645C1269.18 354.878 1275.29 352.111 1279.94 349.344L1279.94 402.638ZM1237.44 279.281C1236.88 273.636 1235.2 267.797 1232.37 261.766C1229.55 255.735 1225.1 250.283 1219.01 245.413C1212.92 240.543 1204.95 236.531 1195.1 233.376C1185.25 230.222 1172.97 228.644 1158.24 228.644C1144.41 228.644 1132.46 230.36 1122.38 233.791C1112.31 237.222 1103.87 241.484 1097.06 246.575C1090.26 251.666 1084.97 257.145 1081.21 263.011C1077.45 268.877 1075.01 274.301 1073.9 279.282L1237.44 279.281ZM1558.63 413.927V391.514C1550.78 395.831 1542.34 399.649 1533.32 402.97C1524.3 406.291 1514.92 409.113 1505.18 411.437C1495.43 413.762 1485.39 415.505 1475.04 416.667C1464.69 417.829 1454.26 418.41 1443.75 418.41C1431.46 418.41 1419.59 417.248 1408.13 414.924C1396.68 412.599 1386.52 408.836 1377.67 403.634C1368.82 398.433 1361.7 391.625 1356.33 383.214C1350.97 374.803 1348.28 364.508 1348.28 352.334C1348.28 336.949 1352.49 324.138 1360.9 313.899C1369.31 303.66 1382.15 295.276 1399.42 288.746C1416.69 282.216 1438.52 277.18 1464.92 273.639C1491.31 270.097 1522.55 267.33 1558.63 265.337V260.523C1558.63 256.759 1557.64 253.024 1555.64 249.316C1553.65 245.608 1550.03 242.343 1544.77 239.521C1539.51 236.699 1532.32 234.402 1523.19 232.631C1514.05 230.86 1502.4 229.974 1488.24 229.974C1477.06 229.974 1466.02 230.555 1455.12 231.718C1444.21 232.88 1433.7 234.457 1423.57 236.449C1413.44 238.442 1403.84 240.766 1394.77 243.422C1385.69 246.079 1377.45 248.846 1370.03 251.723V196.936C1377.78 194.943 1386.47 193.006 1396.09 191.125C1405.72 189.244 1415.74 187.611 1426.15 186.227C1436.55 184.844 1447.06 183.737 1457.69 182.907C1468.31 182.077 1478.5 181.662 1488.24 181.662C1507.39 181.662 1525.04 183.239 1541.2 186.393C1557.36 189.548 1571.28 194.446 1582.95 201.086C1594.63 207.727 1603.76 216.139 1610.35 226.322C1616.94 236.506 1620.23 248.624 1620.23 262.681V413.929L1558.63 413.927ZM1558.63 309.831C1534.95 310.717 1514.83 311.989 1498.28 313.649C1481.74 315.31 1467.99 317.247 1457.03 319.46C1446.07 321.674 1437.47 324.053 1431.21 326.599C1424.96 329.145 1420.28 331.746 1417.18 334.402C1414.08 337.059 1412.17 339.715 1411.45 342.371C1410.74 345.028 1410.38 347.463 1410.38 349.676C1410.38 352.333 1411.1 354.906 1412.53 357.396C1413.97 359.887 1416.49 362.073 1420.09 363.954C1423.69 365.836 1428.47 367.33 1434.45 368.437C1440.43 369.544 1447.95 370.097 1457.03 370.097C1467.1 370.097 1476.95 369.322 1486.58 367.773C1496.21 366.223 1505.34 364.093 1513.98 361.381C1522.61 358.669 1530.72 355.46 1538.3 351.752C1545.88 348.044 1552.66 344.087 1558.64 339.881L1558.63 309.831ZM1762.78 185.81V210.881C1768.21 207.449 1774.1 203.908 1780.47 200.255C1786.83 196.603 1793.75 193.282 1801.22 190.293C1808.69 187.305 1816.71 184.842 1825.29 182.905C1833.87 180.968 1843.14 180 1853.1 180C1862.84 180 1871.36 181.024 1878.67 183.071C1885.97 185.119 1892.31 187.775 1897.68 191.041C1903.05 194.306 1907.61 197.958 1911.37 201.998C1915.14 206.039 1918.4 210.051 1921.17 214.035C1929.03 208.944 1936.78 204.295 1944.41 200.089C1952.05 195.883 1959.74 192.286 1967.49 189.298C1975.24 186.31 1983.15 184.013 1991.23 182.408C1999.31 180.803 2007.72 180.001 2016.47 180.001C2030.41 180.001 2042.89 181.938 2053.91 185.811C2064.92 189.685 2074.24 194.998 2081.88 201.75C2089.52 208.502 2095.36 216.443 2099.4 225.574C2103.44 234.705 2105.46 244.472 2105.46 254.877V413.928H2043.86V263.675C2043.86 257.588 2042.92 252.331 2041.04 247.903C2039.16 243.475 2036.64 239.878 2033.48 237.111C2030.33 234.343 2026.62 232.296 2022.36 230.968C2018.1 229.639 2013.59 228.975 2008.83 228.975C1986.69 228.975 1961.46 238.937 1933.12 258.859C1933.46 260.741 1933.7 262.954 1933.87 265.5C1934.04 268.046 1934.12 270.591 1934.12 273.137V413.929H1872.52V262.35C1872.52 256.262 1871.58 251.088 1869.7 246.827C1867.82 242.565 1865.25 239.107 1861.98 236.45C1858.72 233.794 1854.95 231.884 1850.69 230.722C1846.43 229.56 1841.92 228.979 1837.16 228.979C1831.41 228.979 1825.35 229.809 1818.98 231.469C1812.62 233.13 1806.2 235.454 1799.72 238.442C1793.25 241.431 1786.88 244.973 1780.63 249.068C1774.38 253.163 1768.43 257.59 1762.78 262.35V413.929H1701.19V185.812L1762.78 185.81ZM2248.01 316.309C2248.01 325.827 2248.9 333.603 2250.67 339.634C2252.44 345.666 2255.32 350.454 2259.3 353.995C2263.29 357.536 2268.46 359.972 2274.82 361.3C2281.19 362.628 2289.02 363.292 2298.32 363.292H2415.2V413.929H2285.7C2267.77 413.929 2252.53 412.463 2239.96 409.53C2227.4 406.597 2217.14 402.059 2209.17 395.915C2201.2 389.772 2195.41 381.997 2191.82 372.59C2188.22 363.182 2186.42 352.002 2186.42 339.053V185.816H2248.02L2248.01 316.309ZM2746.03 326.263C2746.03 341.094 2742.37 354.321 2735.07 365.942C2727.76 377.564 2717.39 387.388 2703.94 395.412C2690.49 403.435 2674.22 409.551 2655.13 413.757C2636.04 417.963 2614.65 420.066 2590.96 420.066C2580.56 420.066 2569.63 419.651 2558.17 418.821C2546.72 417.991 2535.54 416.829 2524.63 415.334C2513.73 413.84 2503.52 412.125 2494 410.188C2484.48 408.251 2476.46 406.12 2469.93 403.796V349.672C2477.01 352.66 2484.9 355.483 2493.59 358.139C2502.28 360.796 2511.71 363.148 2521.9 365.195C2532.08 367.243 2543.01 368.848 2554.68 370.01C2566.36 371.172 2578.73 371.753 2591.79 371.753C2604.08 371.753 2614.9 371.034 2624.25 369.595C2633.6 368.156 2641.71 366.219 2648.57 363.784C2655.43 361.349 2661.13 358.554 2665.67 355.4C2670.21 352.245 2673.86 348.98 2676.63 345.605C2679.4 342.229 2681.36 338.881 2682.52 335.561C2683.68 332.241 2684.27 329.141 2684.27 326.263V306.174C2672.98 314.475 2659.53 321.31 2643.92 326.678C2628.32 332.046 2610.55 334.73 2590.63 334.73C2567.5 334.73 2548.21 332.489 2532.77 328.006C2517.33 323.523 2504.96 317.048 2495.66 308.581C2486.37 300.113 2479.75 289.791 2475.82 277.617C2471.89 265.443 2469.93 251.717 2469.93 236.443V185.806H2531.86V230.301C2531.86 239.266 2533.05 247.235 2535.43 254.208C2537.81 261.181 2541.57 267.02 2546.72 271.723C2551.86 276.426 2558.53 279.996 2566.72 282.432C2574.91 284.867 2584.82 286.084 2596.44 286.084C2606.29 286.084 2615.62 284.867 2624.41 282.432C2633.21 279.997 2641.32 276.787 2648.74 272.803C2656.15 268.818 2662.85 264.28 2668.83 259.188C2674.8 254.097 2679.95 248.895 2684.27 243.582V185.806H2746.03L2746.03 326.263Z" fill="#7E54F8"/>
<defs>
<linearGradient id="paint0_linear_1_3" x1="0.0810547" y1="0" x2="600.081" y2="0" gradientUnits="userSpaceOnUse">
<stop stop-color="#7E54F8"/>
<stop offset="1" stop-color="#7E54F8"/>
</linearGradient>
<linearGradient id="paint1_linear_1_3" x1="0.0810547" y1="203.038" x2="600.081" y2="203.038" gradientUnits="userSpaceOnUse">
<stop stop-color="#7E54F8"/>
<stop offset="1" stop-color="#7E54F8"/>
</linearGradient>
<linearGradient id="paint2_linear_1_3" x1="98.8007" y1="409.761" x2="501.362" y2="409.761" gradientUnits="userSpaceOnUse">
<stop stop-color="#7E54F8"/>
<stop offset="1" stop-color="#7E54F8"/>
</linearGradient>
</defs>
</svg>
