<svg width="3001" height="556" viewBox="0 0 3001 556" fill="none" xmlns="http://www.w3.org/2000/svg">
<path d="M280.315 135.097L560.877 296.649V161.843L280.135 0.11084L0.11084 162.022V297.008L280.315 135.097Z" fill="#7E54F8"/>
<path d="M516.002 459.099L560.877 432.712V349.962L280.135 188.05L0.11084 349.962V433.071L44.9865 459.099L280.135 323.036L516.002 459.099Z" fill="#7E54F8"/>
<path d="M280.315 514.386L351.577 555.492L468.613 488.179L280.135 379.4L92.3752 488.179L209.411 555.492L280.315 514.386Z" fill="#7E54F8"/>
<path d="M900.006 208.432V409.014H830.781V208.432H721.998V152.642H1008.97V208.432H900.006ZM1352.42 396.326C1331.4 403.292 1310.41 408.299 1289.45 411.347C1268.49 414.394 1247.06 415.918 1225.17 415.918C1197.18 415.918 1172.27 412.902 1150.44 406.869C1128.61 400.836 1110.23 392.097 1095.3 380.653C1080.37 369.209 1068.99 355.216 1061.15 338.671C1053.32 322.127 1049.4 303.406 1049.4 282.508C1049.4 263.102 1053.35 245.097 1061.25 228.491C1069.15 211.884 1080.34 197.456 1094.83 185.202C1109.33 172.948 1126.83 163.37 1147.36 156.467C1167.88 149.564 1190.77 146.111 1216.02 146.111C1239.28 146.111 1260.58 149.252 1279.93 155.534C1299.27 161.816 1315.88 171.115 1329.75 183.429C1343.62 195.743 1354.38 210.919 1362.03 228.956C1369.68 246.994 1373.5 267.767 1373.5 291.276V308.443H1120.87C1123.1 316.528 1126.8 323.93 1131.97 330.647C1137.13 337.364 1144.13 343.086 1152.96 347.813C1161.79 352.54 1172.64 356.21 1185.52 358.821C1198.39 361.433 1213.79 362.74 1231.7 362.74C1244.39 362.74 1256.83 361.962 1269.02 360.408C1281.21 358.853 1292.59 356.8 1303.16 354.25C1313.74 351.7 1323.28 348.87 1331.8 345.76C1340.32 342.65 1347.2 339.54 1352.42 336.431L1352.42 396.326ZM1304.65 257.689C1304.03 251.345 1302.13 244.782 1298.96 238.004C1295.79 231.226 1290.78 225.099 1283.94 219.626C1277.1 214.152 1268.14 209.643 1257.07 206.098C1246 202.553 1232.2 200.78 1215.65 200.78C1200.1 200.78 1186.67 202.708 1175.35 206.565C1164.03 210.421 1154.54 215.21 1146.89 220.932C1139.24 226.654 1133.3 232.811 1129.07 239.404C1124.84 245.997 1122.11 252.092 1120.86 257.69L1304.65 257.689ZM1665.64 409.014V383.825C1656.81 388.676 1647.32 392.967 1637.18 396.7C1627.04 400.432 1616.5 403.603 1605.56 406.216C1594.61 408.828 1583.32 410.787 1571.69 412.093C1560.06 413.399 1548.34 414.052 1536.52 414.052C1522.71 414.052 1509.37 412.746 1496.49 410.134C1483.62 407.522 1472.21 403.292 1462.26 397.446C1452.31 391.6 1444.31 383.949 1438.28 374.496C1432.24 365.043 1429.23 353.473 1429.23 339.791C1429.23 322.5 1433.96 308.102 1443.41 296.595C1452.86 285.088 1467.29 275.666 1486.7 268.327C1506.11 260.988 1530.64 255.328 1560.31 251.348C1589.98 247.368 1625.09 244.257 1665.63 242.018V236.607C1665.63 232.378 1664.51 228.18 1662.28 224.012C1660.04 219.845 1655.96 216.176 1650.05 213.004C1644.15 209.832 1636.06 207.251 1625.8 205.26C1615.53 203.27 1602.44 202.275 1586.52 202.275C1573.96 202.275 1561.55 202.928 1549.3 204.234C1537.04 205.54 1525.23 207.313 1513.84 209.552C1502.46 211.791 1491.67 214.403 1481.47 217.389C1471.27 220.374 1462 223.484 1453.67 226.718V165.144C1462.38 162.905 1472.14 160.728 1482.96 158.613C1493.79 156.499 1505.04 154.664 1516.74 153.109C1528.43 151.554 1540.25 150.31 1552.19 149.377C1564.13 148.444 1575.57 147.978 1586.52 147.978C1608.04 147.978 1627.88 149.751 1646.04 153.296C1664.2 156.841 1679.85 162.345 1692.97 169.809C1706.09 177.272 1716.36 186.726 1723.76 198.171C1731.16 209.616 1734.86 223.235 1734.86 239.033V409.016L1665.64 409.014ZM1665.64 292.024C1639.02 293.019 1616.41 294.449 1597.81 296.315C1579.21 298.181 1563.76 300.358 1551.44 302.845C1539.13 305.333 1529.46 308.008 1522.43 310.869C1515.4 313.729 1510.15 316.653 1506.66 319.638C1503.18 322.624 1501.03 325.609 1500.23 328.594C1499.42 331.58 1499.01 334.317 1499.01 336.804C1499.01 339.79 1499.82 342.682 1501.44 345.481C1503.06 348.28 1505.89 350.736 1509.93 352.851C1513.97 354.966 1519.35 356.645 1526.07 357.889C1532.79 359.133 1541.24 359.755 1551.45 359.755C1562.77 359.755 1573.84 358.884 1584.66 357.142C1595.48 355.401 1605.74 353.007 1615.45 349.959C1625.15 346.911 1634.26 343.304 1642.78 339.137C1651.3 334.97 1658.92 330.523 1665.64 325.796L1665.64 292.024ZM1895.07 152.64V180.816C1901.17 176.96 1907.79 172.979 1914.95 168.874C1922.1 164.769 1929.87 161.038 1938.27 157.679C1946.67 154.32 1955.68 151.553 1965.32 149.376C1974.96 147.199 1985.38 146.11 1996.58 146.11C2007.52 146.11 2017.1 147.261 2025.31 149.562C2033.52 151.863 2040.64 154.849 2046.68 158.519C2052.71 162.188 2057.84 166.293 2062.07 170.834C2066.3 175.374 2069.97 179.883 2073.08 184.361C2081.91 178.639 2090.62 173.415 2099.2 168.688C2107.79 163.961 2116.43 159.918 2125.14 156.56C2133.84 153.202 2142.74 150.62 2151.82 148.817C2160.9 147.013 2170.35 146.111 2180.18 146.111C2195.86 146.111 2209.88 148.288 2222.26 152.642C2234.63 156.995 2245.11 162.966 2253.7 170.554C2262.28 178.142 2268.84 187.067 2273.38 197.329C2277.92 207.592 2280.19 218.568 2280.19 230.263V409.015H2210.97V240.15C2210.97 233.309 2209.91 227.4 2207.8 222.424C2205.68 217.448 2202.85 213.406 2199.31 210.295C2195.76 207.185 2191.59 204.884 2186.81 203.391C2182.02 201.899 2176.95 201.152 2171.6 201.152C2146.72 201.152 2118.36 212.348 2086.51 234.738C2086.89 236.853 2087.17 239.34 2087.35 242.201C2087.54 245.062 2087.63 247.923 2087.63 250.784V409.016H2018.41V238.661C2018.41 231.819 2017.35 226.004 2015.24 221.215C2013.12 216.426 2010.23 212.538 2006.56 209.553C2002.89 206.568 1998.66 204.422 1993.87 203.116C1989.08 201.809 1984.01 201.156 1978.67 201.156C1972.2 201.156 1965.39 202.089 1958.23 203.955C1951.08 205.821 1943.87 208.433 1936.59 211.792C1929.31 215.151 1922.16 219.131 1915.13 223.734C1908.1 228.336 1901.42 233.312 1895.07 238.661V409.016H1825.85V152.642L1895.07 152.64ZM2440.41 299.303C2440.41 310.001 2441.4 318.741 2443.39 325.519C2445.38 332.297 2448.62 337.678 2453.1 341.658C2457.57 345.638 2463.39 348.375 2470.54 349.868C2477.69 351.361 2486.49 352.107 2496.94 352.107H2628.3V409.016H2482.77C2462.62 409.016 2445.48 407.368 2431.36 404.072C2417.24 400.775 2405.71 395.675 2396.75 388.771C2387.79 381.867 2381.29 373.129 2377.25 362.556C2373.21 351.983 2371.19 339.419 2371.19 324.865V152.647H2440.41L2440.41 299.303ZM3000.11 310.49C3000.11 327.159 2996 342.024 2987.79 355.085C2979.58 368.147 2967.92 379.187 2952.81 388.205C2937.7 397.222 2919.41 404.096 2897.95 408.823C2876.49 413.55 2852.46 415.913 2825.84 415.913C2814.14 415.913 2801.86 415.447 2788.98 414.514C2776.11 413.581 2763.55 412.275 2751.29 410.595C2739.04 408.916 2727.57 406.988 2716.87 404.811C2706.17 402.634 2697.15 400.24 2689.81 397.628V336.8C2697.77 340.158 2706.64 343.33 2716.4 346.316C2726.17 349.301 2736.77 351.944 2748.22 354.246C2759.66 356.547 2771.94 358.351 2785.07 359.657C2798.19 360.963 2812.09 361.616 2826.77 361.616C2840.58 361.616 2852.74 360.807 2863.25 359.19C2873.76 357.573 2882.87 355.396 2890.58 352.659C2898.29 349.923 2904.7 346.782 2909.8 343.237C2914.9 339.691 2919.01 336.022 2922.12 332.228C2925.23 328.435 2927.43 324.672 2928.74 320.94C2930.05 317.209 2930.7 313.725 2930.7 310.491V287.913C2918.01 297.243 2902.9 304.924 2885.36 310.957C2867.82 316.99 2847.85 320.006 2825.46 320.006C2799.47 320.006 2777.79 317.488 2760.44 312.45C2743.09 307.412 2729.18 300.134 2718.74 290.618C2708.29 281.102 2700.85 269.502 2696.44 255.819C2692.02 242.137 2689.81 226.711 2689.81 209.545V152.636H2759.41V202.642C2759.41 212.717 2760.75 221.674 2763.42 229.51C2766.1 237.347 2770.33 243.909 2776.11 249.195C2781.9 254.481 2789.39 258.493 2798.6 261.23C2807.8 263.967 2818.93 265.335 2832 265.335C2843.07 265.335 2853.55 263.967 2863.44 261.23C2873.32 258.494 2882.44 254.886 2890.77 250.408C2899.1 245.93 2906.63 240.83 2913.35 235.108C2920.06 229.385 2925.85 223.54 2930.7 217.569V152.636H3000.11L3000.11 310.49Z" fill="#7E54F8"/>
</svg>
