<svg width="3001" height="811" viewBox="0 0 3001 811" fill="none" xmlns="http://www.w3.org/2000/svg">
<path d="M158.937 727.216C173.261 738.216 188.342 748.243 204.072 757.27L405.487 555.847L606.883 757.261C622.631 748.234 637.703 738.207 652.027 727.207L405.487 480.667L158.937 727.216Z" fill="#7E54F8"/>
<path d="M83.7656 158.946L330.315 405.495L83.7656 652.045C94.5945 666.153 106.27 679.604 118.829 692.162L405.486 405.495L118.829 118.838C106.261 131.387 94.5945 144.829 83.7656 158.946Z" fill="#7E54F8"/>
<path d="M652.036 83.7657C637.721 72.7747 622.631 62.7477 606.901 53.7297L405.487 255.135L204.063 53.7207C188.333 62.7477 173.252 72.7838 158.937 83.7657L405.487 330.324L652.036 83.7657Z" fill="#7E54F8"/>
<path d="M480.658 405.496L727.216 158.937C716.378 144.829 704.712 131.387 692.144 118.82L405.486 405.496L692.144 692.162C704.703 679.595 716.369 666.153 727.216 652.045L480.658 405.496Z" fill="#7E54F8"/>
<path d="M757.261 204.072L555.829 405.495L757.261 606.928C791.315 547.568 810.892 478.856 810.892 405.495C810.892 332.153 791.315 263.423 757.261 204.072Z" fill="#7E54F8"/>
<path d="M555.829 781.396L405.487 631.018L255.144 781.396H253.658C300.568 800.36 351.784 810.883 405.487 810.883C459.18 810.883 510.405 800.36 557.306 781.396H555.829Z" fill="#7E54F8"/>
<path d="M255.144 405.495L53.7207 204.081C19.6576 263.423 0.0810547 332.153 0.0810547 405.495C0.0810547 478.856 19.6486 547.568 53.7207 606.91L255.144 405.495Z" fill="#7E54F8"/>
<path d="M255.144 29.6126L405.487 179.955L555.829 29.6126H557.361C510.442 10.6306 459.207 0.0810547 405.487 0.0810547C351.757 0.0810547 300.541 10.6306 253.613 29.6036L255.144 29.6126Z" fill="#7E54F8"/>
<path d="M1116.63 521.402C1137.51 529.886 1153.83 524.012 1163.62 519.444V571.653C1155.13 576.874 1142.73 581.442 1125.11 581.442C1086.61 581.442 1052.67 569.043 1031.79 535.107C1012.21 502.476 1012.21 484.855 1012.21 433.951V307.343H973.054V252.524H1012.21V150.715H1079.43V252.524H1163.62V307.343H1079.43V433.951C1079.43 487.466 1084.65 507.044 1116.63 521.402ZM1546.05 414.373V438.519H1292.18C1292.18 497.907 1348.96 526.623 1390.73 526.623C1421.4 526.623 1455.34 510.307 1473.61 484.202L1519.95 525.97C1498.41 555.338 1463.17 581.442 1390.73 581.442C1286.31 581.442 1222.35 510.307 1222.35 414.373C1222.35 318.438 1284.35 246.65 1384.2 246.65C1484.05 246.65 1529.74 302.122 1543.44 383.047C1545.4 393.489 1546.05 403.931 1546.05 414.373ZM1293.49 383.047H1475.57C1475.57 330.838 1433.8 302.122 1384.2 302.122C1334.6 302.122 1293.49 335.406 1293.49 383.047ZM1749.02 245.997C1841.69 245.997 1878.89 302.122 1878.89 349.763V574.916H1811.67V539.675C1788.17 571.653 1746.4 580.79 1720.3 580.79C1646.55 580.79 1598.26 537.717 1598.26 480.287C1598.26 400.015 1658.3 371.3 1720.3 371.3H1811.67V349.763C1811.67 329.532 1803.83 301.47 1749.02 301.47C1718.34 301.47 1690.28 317.785 1672.01 343.237L1625.67 301.47C1656.34 267.534 1700.07 245.997 1749.02 245.997ZM1811.67 474.413V426.12H1729.44C1689.63 426.12 1661.56 446.351 1666.13 482.897C1670.05 513.57 1694.85 525.97 1729.44 525.97C1791.44 525.97 1811.67 496.602 1811.67 474.413ZM2249.57 388.92V574.916H2181.7L2182.35 572.306V395.447C2182.35 330.185 2165.38 301.47 2109.91 301.47C2047.26 301.47 2025.07 345.195 2025.07 401.973V574.916H1957.85V252.524H2025.07V304.733C2034.21 276.018 2071.41 249.913 2109.91 247.303C2173.22 242.734 2218.25 263.618 2238.48 315.827C2252.18 271.45 2295.91 249.913 2333.76 247.303C2421.21 240.777 2473.42 283.197 2473.42 388.92V574.916H2406.2V395.447C2406.2 330.185 2389.23 301.47 2333.76 301.47C2277.63 301.47 2254.14 336.711 2249.57 388.92ZM2622.22 73.0541V574.916H2554.34V73.0541H2622.22ZM3000.08 252.524C3000.08 252.524 2918.5 445.698 2864.34 574.916C2818.65 683.251 2782.76 748.512 2722.07 748.512C2703.14 748.512 2678.99 739.375 2661.37 728.934L2681.6 670.198C2686.83 674.766 2698.57 681.293 2706.4 683.251C2756.66 697.608 2787.98 592.537 2809.52 540.98L2687.48 252.524H2755.35L2844.11 463.971L2932.21 252.524H3000.08Z" fill="#041635"/>
</svg>
