
        <svg xmlns="http://www.w3.org/2000/svg" xmlns:xlink="http://www.w3.org/1999/xlink" version="1.1" width="3162.1621621621625" 
        height="965.1867658785767" viewBox="0 0 3162.1621621621625 965.1867658785767">
			
			<g transform="scale(8.108108108108109) translate(10, 10)">
				<defs id="SvgjsDefs3074"><linearGradient id="SvgjsLinearGradient3079"><stop id="SvgjsStop3080" stop-color="#2d388a" offset="0"></stop><stop id="SvgjsStop3081" stop-color="#00aeef" offset="1"></stop></linearGradient></defs><g id="SvgjsG3075" featureKey="symbolFeature-0" transform="matrix(32.01024742112572,0,0,32.01024742112572,-30.025614736895445,-30.50576799030207)" fill="url(#SvgjsLinearGradient3079)"><g xmlns="http://www.w3.org/2000/svg"><g><polygon fill="url(#SvgjsLinearGradient3079)" points="2.499,1.705 4.062,2.605 4.062,1.854 2.498,0.953 0.938,1.855 0.938,2.607   "></polygon></g><g><polygon fill="url(#SvgjsLinearGradient3079)" points="3.812,3.51 4.062,3.363 4.062,2.902 2.498,2 0.938,2.902 0.938,3.365 1.188,3.51 2.498,2.752       "></polygon></g><g><polygon fill="url(#SvgjsLinearGradient3079)" points="2.499,3.818 2.896,4.047 3.548,3.672 2.498,3.066 1.452,3.672 2.104,4.047   "></polygon></g></g></g><g id="SvgjsG3076" featureKey="nameFeature-0" transform="matrix(1.0483830304258877,0,0,1.0483830304258877,119.3658317275489,21.91569634926717)" fill="#3d8cbf"><path d="M19.238 19.004 l0 20.996 l-7.2461 0 l0 -20.996 l-11.387 0 l0 -5.8398 l30.039 0 l0 5.8398 l-11.406 0 z M66.59463281250001 38.6719 c-2.2006 0.72916 -4.3979 1.2533 -6.5918 1.5723 s-4.4369 0.47852 -6.7285 0.47852 c-2.9297 0 -5.5371 -0.31576 -7.8223 -0.94727 s-4.209 -1.5462 -5.7715 -2.7441 s-2.7539 -2.6627 -3.5742 -4.3945 s-1.2305 -3.6914 -1.2305 -5.8789 c0 -2.0313 0.41342 -3.916 1.2402 -5.6543 s1.9986 -3.2486 3.5156 -4.5313 s3.3496 -2.2852 5.498 -3.0078 s4.5443 -1.084 7.1875 -1.084 c2.435 0 4.6646 0.32877 6.6895 0.98633 s3.7631 1.6309 5.2148 2.9199 s2.5781 2.8775 3.3789 4.7656 s1.2012 4.0625 1.2012 6.5234 l0 1.7969 l-26.445 0 c0.23438 0.84635 0.62174 1.6211 1.1621 2.3242 s1.2728 1.3021 2.1973 1.7969 s2.0605 0.87891 3.4082 1.1523 s2.959 0.41016 4.834 0.41016 c1.3281 0 2.6303 -0.081387 3.9063 -0.24414 s2.4674 -0.3776 3.5742 -0.64453 s2.1061 -0.56316 2.998 -0.88869 s1.6113 -0.65105 2.1582 -0.97658 l0 6.2695 z M61.594632812499995 24.16 c-0.065098 -0.66406 -0.26365 -1.351 -0.59568 -2.0605 s-0.85611 -1.3509 -1.5723 -1.9238 s-1.6537 -1.0449 -2.8125 -1.416 s-2.6041 -0.55664 -4.3359 -0.55664 c-1.6276 0 -3.0338 0.20182 -4.2188 0.60547 s-2.1777 0.90496 -2.9785 1.5039 s-1.4225 1.2435 -1.8652 1.9336 s-0.72918 1.3281 -0.85939 1.9141 l19.238 0 z M99.380734375 40 l0 -2.6367 c-0.92447 0.50781 -1.9173 0.95703 -2.9785 1.3477 s-2.1646 0.72266 -3.3105 0.99609 s-2.3275 0.47852 -3.5449 0.61523 s-2.4447 0.20508 -3.6816 0.20508 c-1.4453 0 -2.8418 -0.13672 -4.1895 -0.41016 s-2.5424 -0.71615 -3.584 -1.3281 s-1.8782 -1.4128 -2.5098 -2.4023 s-0.94727 -2.2006 -0.94727 -3.6328 c0 -1.8099 0.49479 -3.317 1.4844 -4.5215 s2.5 -2.1908 4.5313 -2.959 s4.5996 -1.3607 7.7051 -1.7773 s6.7807 -0.74219 11.025 -0.97656 l0 -0.56641 c0 -0.44271 -0.11719 -0.88217 -0.35156 -1.3184 s-0.6608 -0.82031 -1.2793 -1.1523 s-1.4648 -0.60221 -2.5391 -0.81055 s-2.4447 -0.3125 -4.1113 -0.3125 c-1.3151 0 -2.6139 0.068359 -3.8965 0.20508 s-2.5195 0.32227 -3.7109 0.55664 s-2.3209 0.50781 -3.3887 0.82031 s-2.0377 0.63803 -2.9102 0.97656 l0 -6.4453 c0.91146 -0.23438 1.9336 -0.46225 3.0664 -0.68359 s2.3111 -0.4134 3.5352 -0.57615 s2.4609 -0.29297 3.7109 -0.39063 s2.4479 -0.14648 3.5938 -0.14648 c2.2525 0 4.3295 0.18555 6.2305 0.55664 s3.5385 0.94727 4.9121 1.7285 s2.4479 1.7708 3.2227 2.9688 s1.1621 2.6236 1.1621 4.2773 l0 17.793 l-7.2461 0 z M99.380734375 27.753999999999998 c-2.7865 0.10416 -5.1529 0.25387 -7.0996 0.44918 s-3.5645 0.42318 -4.8535 0.68359 s-2.3014 0.54035 -3.0371 0.83982 s-1.2858 0.60547 -1.6504 0.91797 s-0.5892 0.625 -0.67383 0.9375 s-0.12695 0.59896 -0.12695 0.85938 c0 0.3125 0.084629 0.61523 0.25391 0.9082 s0.46551 0.55014 0.88869 0.77148 s0.98633 0.39713 1.6895 0.52734 s1.5885 0.19531 2.6563 0.19531 c1.1849 0 2.3438 -0.091152 3.4766 -0.27344 s2.207 -0.43293 3.2227 -0.75193 s1.9693 -0.6966 2.8613 -1.1328 s1.6895 -0.90168 2.3926 -1.3965 l0 -3.5352 z M123.3971484375 13.164000000000001 l0 2.9493 c0.63803 -0.40365 1.3314 -0.82031 2.0801 -1.25 s1.5625 -0.82031 2.4414 -1.1719 s1.8229 -0.64127 2.832 -0.86914 s2.0996 -0.3418 3.2715 -0.3418 c1.1458 0 2.1484 0.12045 3.0078 0.36133 s1.6048 0.55338 2.2363 0.9375 s1.1686 0.81381 1.6113 1.2891 s0.82684 0.94727 1.1524 1.416 c0.92447 -0.59896 1.8359 -1.1458 2.7344 -1.6406 s1.8034 -0.91797 2.7148 -1.2695 s1.8425 -0.62174 2.793 -0.81055 s1.9401 -0.2832 2.9688 -0.2832 c1.6406 0 3.1088 0.22787 4.4043 0.68359 s2.3926 1.0807 3.291 1.875 s1.5853 1.7285 2.0605 2.8027 s0.71289 2.2232 0.71289 3.4473 l0 18.711 l-7.2461 0 l0 -17.676 c0 -0.71615 -0.11068 -1.3346 -0.33203 -1.8555 s-0.51758 -0.94402 -0.88867 -1.2696 s-0.80729 -0.56641 -1.3086 -0.72266 s-1.0319 -0.23438 -1.5918 -0.23438 c-2.6041 0 -5.5729 1.1719 -8.9063 3.5156 c0.039063 0.22135 0.068359 0.48176 0.087891 0.78123 s0.029297 0.59895 0.029297 0.89842 l0 16.563 l-7.2461 0 l0 -17.832 c0 -0.71615 -0.11068 -1.3249 -0.33203 -1.8262 s-0.52408 -0.9082 -0.9082 -1.2207 s-0.82684 -0.53711 -1.3281 -0.67383 s-1.0319 -0.20508 -1.5918 -0.20508 c-0.67709 0 -1.39 0.097656 -2.1387 0.29297 s-1.5039 0.46875 -2.2656 0.82031 s-1.5104 0.76822 -2.2461 1.25 s-1.4355 1.0026 -2.0996 1.5625 l0 17.832 l-7.2461 0 l0 -26.836 l7.2461 0 z M180.48015625 28.516 c0 1.1198 0.10416 2.0346 0.3125 2.7441 s0.54688 1.2728 1.0156 1.6894 s1.0775 0.70313 1.8262 0.85938 s1.6699 0.23438 2.7637 0.23438 l13.75 0 l0 5.957 l-15.234 0 c-2.1094 0 -3.9029 -0.17252 -5.3809 -0.51758 s-2.6855 -0.87891 -3.623 -1.6016 s-1.6178 -1.6374 -2.041 -2.7441 s-0.63477 -2.4219 -0.63477 -3.9453 l0 -18.027 l7.2461 0 l0 15.352 z M239.0671640625 29.686999999999998 c0 1.7448 -0.42963 3.3008 -1.289 4.668 s-2.0801 2.5229 -3.6621 3.4668 s-3.4961 1.6634 -5.7422 2.1582 s-4.7623 0.74219 -7.5488 0.74219 c-1.224 0 -2.5098 -0.048828 -3.8574 -0.14648 s-2.6627 -0.23438 -3.9453 -0.41016 s-2.4838 -0.3776 -3.6035 -0.60547 s-2.0639 -0.47852 -2.832 -0.75195 l0 -6.3672 c0.83334 0.35156 1.7611 0.68359 2.7832 0.99609 s2.1322 0.5892 3.3301 0.83008 s2.4838 0.42969 3.8574 0.56641 s2.8287 0.20508 4.3652 0.20508 c1.4453 0 2.7182 -0.084629 3.8184 -0.25391 s2.0541 -0.39715 2.8613 -0.68361 s1.4779 -0.61523 2.0117 -0.98633 s0.96354 -0.75521 1.2891 -1.1523 s0.55664 -0.79102 0.69336 -1.1816 s0.20508 -0.75521 0.20508 -1.0938 l0 -2.3633 c-1.3281 0.97656 -2.9102 1.7806 -4.7461 2.4121 s-3.9258 0.94727 -6.2695 0.94727 c-2.7213 0 -4.9902 -0.26367 -6.8066 -0.79102 s-3.2715 -1.2891 -4.3652 -2.2852 s-1.8717 -2.2104 -2.334 -3.6426 s-0.69336 -3.0469 -0.69336 -4.8438 l0 -5.957 l7.2852 0 l0 5.2344 c0 1.0547 0.13998 1.9922 0.41992 2.8125 s0.72266 1.5072 1.3281 2.0605 s1.39 0.9733 2.3535 1.2598 s2.1289 0.42969 3.4961 0.42969 c1.1588 0 2.2559 -0.14322 3.291 -0.42969 s1.9889 -0.66406 2.8613 -1.1328 s1.6602 -1.0026 2.3633 -1.6016 s1.3086 -1.2109 1.8164 -1.8359 l0 -6.7969 l7.2656 0 l0 16.523 z"></path></g>
			</g>
		</svg>
	