<svg width="3000" height="738" viewBox="0 0 3000 738" fill="none" xmlns="http://www.w3.org/2000/svg">
<path d="M495.33 681.086C528.856 486.024 565.43 290.961 598.957 95.8992C617.244 -1.63196 467.899 -41.254 452.66 56.2772C419.133 251.339 382.559 446.402 349.033 641.464C330.746 738.995 477.043 778.617 495.33 681.086Z" fill="#7040FF"/>
<path d="M147.875 681.086C181.401 486.024 217.976 290.961 251.502 95.8992C269.789 -1.63196 120.444 -41.254 105.205 56.2772C71.6788 251.339 35.1046 446.402 1.57824 641.464C-16.7089 738.995 129.588 778.617 147.875 681.086Z" fill="#7040FF"/>
<path d="M916.273 415.488C916.273 429.452 918.666 441.121 923.454 450.496C928.241 459.872 939.412 464.559 956.966 464.559C964.945 464.559 972.525 464.16 979.706 463.362V538.764C965.344 540.36 951.979 541.158 939.611 541.158C914.078 541.158 893.433 539.064 877.674 534.875C861.915 530.686 849.648 522.607 840.871 510.638C832.094 498.67 827.705 481.515 827.705 459.174V276.653H787.611V198.259H827.705V110.29H916.273V198.259H982.1V276.653H916.273V415.488ZM1135 525.001C1107.67 514.229 1084.23 495.977 1064.68 470.244C1045.13 444.512 1035.36 410.9 1035.36 369.409C1035.36 327.918 1045.23 294.406 1064.98 268.873C1084.73 243.34 1108.37 225.188 1135.9 214.416C1163.42 203.645 1189.55 198.259 1214.29 198.259C1243.01 198.259 1270.34 204.642 1296.27 217.408C1322.21 230.175 1343.45 248.926 1360.01 273.661C1376.56 298.396 1385.24 327.719 1386.04 361.63C1386.04 372.002 1385.84 380.979 1385.44 388.559C1385.04 396.139 1384.64 400.926 1384.24 402.921H1124.53C1129.31 426.06 1141.28 441.819 1160.43 450.197C1179.58 458.575 1197.53 462.764 1214.29 462.764C1235.83 462.764 1252.99 458.874 1265.75 451.095C1278.52 443.315 1289.49 434.438 1298.67 424.465L1368.09 464.559C1330.58 515.625 1279.32 541.158 1214.29 541.158C1188.76 541.158 1162.33 535.772 1135 525.001ZM1153.25 294.905C1137.69 307.073 1128.91 321.934 1126.92 339.488H1291.49C1290.29 329.115 1286.3 319.141 1279.52 309.566C1272.74 299.992 1263.66 292.112 1252.29 285.928C1240.92 279.745 1228.05 276.653 1213.69 276.653C1188.96 276.653 1168.81 282.737 1153.25 294.905ZM1707.99 499.867C1700.41 510.239 1687.35 519.515 1668.8 527.694C1650.24 535.872 1630 539.961 1608.06 539.961C1574.14 539.961 1544.72 532.381 1519.79 517.221C1494.85 502.061 1475.8 481.415 1462.64 455.284C1449.47 429.152 1442.89 400.129 1442.89 368.212C1442.89 336.296 1449.47 307.272 1462.64 281.141C1475.8 255.01 1494.85 234.364 1519.79 219.204C1544.72 204.044 1574.14 196.463 1608.06 196.463C1630.8 196.463 1650.84 200.353 1668.2 208.133C1685.55 215.912 1698.82 225.786 1707.99 237.755V203.645H1796.56V532.78H1707.99V499.867ZM1687.05 300.889C1670.69 283.535 1648.75 274.858 1621.22 274.858C1593.29 274.858 1571.25 283.535 1555.09 300.889C1538.94 318.244 1530.86 340.685 1530.86 368.212C1530.86 394.942 1539.14 417.084 1555.69 434.638C1572.25 452.192 1594.09 460.969 1621.22 460.969C1649.15 460.969 1671.19 452.691 1687.35 436.134C1703.51 419.577 1711.58 396.937 1711.58 368.212C1711.58 340.685 1703.41 318.244 1687.05 300.889ZM2376.14 234.763C2398.68 259.498 2409.95 294.007 2409.95 338.291V532.78H2319.59V338.291C2319.59 314.753 2313.7 297.797 2301.93 287.425C2290.16 277.052 2274.7 271.865 2255.56 271.865C2239.6 271.865 2225.23 277.85 2212.47 289.818C2199.7 301.787 2193.12 321.734 2192.72 349.661V532.78H2102.36V338.291C2102.36 314.753 2096.47 297.797 2084.7 287.425C2072.93 277.052 2057.67 271.865 2038.92 271.865C2021.77 271.865 2006.91 278.249 1994.34 291.015C1981.77 303.782 1975.49 326.322 1975.49 358.638L1974.89 532.78H1885.73V203.645H1974.89V233.566C1986.46 223.193 2000.43 214.616 2016.78 207.834C2033.14 201.051 2048.1 197.66 2061.66 197.66C2107.94 197.66 2143.25 212.621 2167.59 242.542C2179.95 228.579 2195.31 217.608 2213.67 209.629C2232.02 201.65 2251.96 197.66 2273.51 197.66C2319.39 197.66 2353.6 210.028 2376.14 234.763ZM2503.3 80.3683H2593.07V532.78H2503.3V80.3683ZM2717.54 656.056L2774.39 520.812L2633.16 204.841H2736.69L2819.87 414.291L2896.47 204.841H3000L2816.28 656.056H2717.54Z" fill="#39396E"/>
</svg>
