<svg width="150" height="36" viewBox="0 0 3001 738" fill="none" xmlns="http://www.w3.org/2000/svg">
<path d="M495.698 681.455C529.225 486.392 565.799 291.33 599.325 96.2676C617.612 -1.26355 468.267 -40.8856 453.028 56.6456C419.502 251.708 382.928 446.77 349.401 641.833C331.114 739.364 477.411 778.986 495.698 681.455Z" fill="#7040FF"/>
<path d="M148.243 681.455C181.77 486.392 218.344 291.33 251.87 96.2676C270.157 -1.26355 120.813 -40.8856 105.574 56.6456C72.0473 251.708 35.4731 446.77 1.94677 641.833C-16.3403 739.364 129.956 778.986 148.243 681.455Z" fill="#7040FF"/>
<path  d="M916.641 415.857C916.641 429.82 919.035 441.489 923.822 450.865C928.61 460.24 939.78 464.928 957.334 464.928C965.313 464.928 972.893 464.529 980.075 463.731V539.133C965.712 540.729 952.347 541.527 939.98 541.527C914.447 541.527 893.801 539.432 878.043 535.243C862.284 531.054 850.016 522.975 841.239 511.007C832.462 499.038 828.074 481.883 828.074 459.542V277.021H787.979V198.627H828.074V110.658H916.641V198.627H982.468V277.021H916.641V415.857ZM1135.37 525.369C1108.04 514.597 1084.6 496.345 1065.05 470.613C1045.5 444.88 1035.73 411.269 1035.73 369.778C1035.73 328.287 1045.6 294.775 1065.35 269.242C1085.1 243.709 1108.74 225.556 1136.26 214.785C1163.79 204.013 1189.92 198.627 1214.66 198.627C1243.38 198.627 1270.71 205.01 1296.64 217.777C1322.58 230.543 1343.82 249.294 1360.38 274.029C1376.93 298.764 1385.61 328.087 1386.41 361.998C1386.41 372.371 1386.21 381.347 1385.81 388.927C1385.41 396.508 1385.01 401.295 1384.61 403.29H1124.89C1129.68 426.429 1141.65 442.188 1160.8 450.566C1179.95 458.944 1197.9 463.133 1214.66 463.133C1236.2 463.133 1253.36 459.243 1266.12 451.463C1278.89 443.684 1289.86 434.807 1299.04 424.833L1368.45 464.928C1330.95 515.994 1279.69 541.527 1214.66 541.527C1189.13 541.527 1162.69 536.141 1135.37 525.369ZM1153.62 295.273C1138.06 307.441 1129.28 322.302 1127.29 339.856H1291.86C1290.66 329.484 1286.67 319.51 1279.89 309.935C1273.1 300.36 1264.03 292.481 1252.66 286.297C1241.29 280.113 1228.42 277.021 1214.06 277.021C1189.33 277.021 1169.18 283.105 1153.62 295.273ZM1708.36 500.235C1700.78 510.608 1687.72 519.883 1669.16 528.062C1650.61 536.241 1630.37 540.33 1608.42 540.33C1574.51 540.33 1545.09 532.75 1520.16 517.589C1495.22 502.429 1476.17 481.784 1463.01 455.652C1449.84 429.521 1443.26 400.497 1443.26 368.581C1443.26 336.665 1449.84 307.641 1463.01 281.51C1476.17 255.378 1495.22 234.732 1520.16 219.572C1545.09 204.412 1574.51 196.832 1608.42 196.832C1631.16 196.832 1651.21 200.722 1668.57 208.501C1685.92 216.281 1699.19 226.155 1708.36 238.123V204.013H1796.93V533.149H1708.36V500.235ZM1687.42 301.258C1671.06 283.903 1649.12 275.226 1621.59 275.226C1593.66 275.226 1571.62 283.903 1555.46 301.258C1539.31 318.612 1531.23 341.053 1531.23 368.581C1531.23 395.311 1539.51 417.452 1556.06 435.006C1572.62 452.56 1594.46 461.337 1621.59 461.337C1649.52 461.337 1671.56 453.059 1687.72 436.502C1703.87 419.946 1711.95 397.305 1711.95 368.581C1711.95 341.053 1703.77 318.612 1687.42 301.258ZM2376.51 235.131C2399.05 259.866 2410.32 294.376 2410.32 338.659V533.149H2319.96V338.659C2319.96 315.121 2314.07 298.166 2302.3 287.793C2290.53 277.42 2275.07 272.234 2255.92 272.234C2239.97 272.234 2225.6 278.218 2212.84 290.187C2200.07 302.155 2193.49 322.103 2193.09 350.03V533.149H2102.73V338.659C2102.73 315.121 2096.84 298.166 2085.07 287.793C2073.3 277.42 2058.04 272.234 2039.29 272.234C2022.14 272.234 2007.28 278.617 1994.71 291.384C1982.14 304.15 1975.86 326.691 1975.86 359.006L1975.26 533.149H1886.1V204.013H1975.26V233.934C1986.83 223.562 2000.79 214.984 2017.15 208.202C2033.51 201.42 2048.47 198.029 2062.03 198.029C2108.31 198.029 2143.62 212.989 2167.95 242.911C2180.32 228.948 2195.68 217.976 2214.03 209.997C2232.39 202.018 2252.33 198.029 2273.88 198.029C2319.76 198.029 2353.97 210.396 2376.51 235.131ZM2503.67 80.7368H2593.44V533.149H2503.67V80.7368ZM2717.91 656.425L2774.76 521.18L2633.53 205.21H2737.06L2820.24 414.66L2896.84 205.21H3000.37L2816.65 656.425H2717.91Z" fill="currentColor"/>
</svg>
